%TF.GenerationSoftware,KiCad,Pcbnew,7.0.10*%
%TF.CreationDate,2024-02-13T14:16:56+07:00*%
%TF.ProjectId,AniSignage v2,416e6953-6967-46e6-9167-652076322e6b,rev?*%
%TF.SameCoordinates,Original*%
%TF.FileFunction,Drillmap*%
%TF.FilePolarity,Positive*%
%FSLAX45Y45*%
G04 Gerber Fmt 4.5, Leading zero omitted, Abs format (unit mm)*
G04 Created by KiCad (PCBNEW 7.0.10) date 2024-02-13 14:16:56*
%MOMM*%
%LPD*%
G01*
G04 APERTURE LIST*
%ADD10C,0.100000*%
%ADD11C,0.200000*%
%ADD12C,0.101000*%
%ADD13C,0.120000*%
%ADD14C,0.152000*%
G04 APERTURE END LIST*
D10*
X8331200Y-4978400D02*
X19481800Y-4978400D01*
X19481800Y-11988800D01*
X8331200Y-11988800D01*
X8331200Y-4978400D01*
D11*
D10*
X8438200Y-5974400D02*
X8478200Y-6014400D01*
X8478200Y-5974400D02*
X8438200Y-6014400D01*
X8717600Y-6761800D02*
X8757600Y-6801800D01*
X8757600Y-6761800D02*
X8717600Y-6801800D01*
X8870000Y-10241600D02*
X8910000Y-10281600D01*
X8910000Y-10241600D02*
X8870000Y-10281600D01*
X8997000Y-7003200D02*
X9037000Y-7043200D01*
X9037000Y-7003200D02*
X8997000Y-7043200D01*
X8997000Y-7269800D02*
X9037000Y-7309800D01*
X9037000Y-7269800D02*
X8997000Y-7309800D01*
X8997000Y-10724200D02*
X9037000Y-10764200D01*
X9037000Y-10724200D02*
X8997000Y-10764200D01*
X9073200Y-10241600D02*
X9113200Y-10281600D01*
X9113200Y-10241600D02*
X9073200Y-10281600D01*
X9174800Y-5568000D02*
X9214800Y-5608000D01*
X9214800Y-5568000D02*
X9174800Y-5608000D01*
X9251000Y-7981000D02*
X9291000Y-8021000D01*
X9291000Y-7981000D02*
X9251000Y-8021000D01*
X9289100Y-8971600D02*
X9329100Y-9011600D01*
X9329100Y-8971600D02*
X9289100Y-9011600D01*
X9454200Y-8209600D02*
X9494200Y-8249600D01*
X9494200Y-8209600D02*
X9454200Y-8249600D01*
X9479600Y-6152200D02*
X9519600Y-6192200D01*
X9519600Y-6152200D02*
X9479600Y-6192200D01*
X9530400Y-9149400D02*
X9570400Y-9189400D01*
X9570400Y-9149400D02*
X9530400Y-9189400D01*
X9555800Y-6101400D02*
X9595800Y-6141400D01*
X9595800Y-6101400D02*
X9555800Y-6141400D01*
X9558600Y-6201700D02*
X9598600Y-6241700D01*
X9598600Y-6201700D02*
X9558600Y-6241700D01*
X9606600Y-7828600D02*
X9646600Y-7868600D01*
X9646600Y-7828600D02*
X9606600Y-7868600D01*
X9606600Y-9441500D02*
X9646600Y-9481500D01*
X9646600Y-9441500D02*
X9606600Y-9481500D01*
X9632000Y-6152200D02*
X9672000Y-6192200D01*
X9672000Y-6152200D02*
X9632000Y-6192200D01*
X9708200Y-10597200D02*
X9748200Y-10637200D01*
X9748200Y-10597200D02*
X9708200Y-10637200D01*
X9911400Y-9784400D02*
X9951400Y-9824400D01*
X9951400Y-9784400D02*
X9911400Y-9824400D01*
X9941500Y-6598100D02*
X9981500Y-6638100D01*
X9981500Y-6598100D02*
X9941500Y-6638100D01*
X9941500Y-6773100D02*
X9981500Y-6813100D01*
X9981500Y-6773100D02*
X9941500Y-6813100D01*
X9987600Y-10381400D02*
X10027600Y-10421400D01*
X10027600Y-10381400D02*
X9987600Y-10421400D01*
X10072500Y-6598100D02*
X10112500Y-6638100D01*
X10112500Y-6598100D02*
X10072500Y-6638100D01*
X10072500Y-6773100D02*
X10112500Y-6813100D01*
X10112500Y-6773100D02*
X10072500Y-6813100D01*
X10394000Y-7803200D02*
X10434000Y-7843200D01*
X10434000Y-7803200D02*
X10394000Y-7843200D01*
X10394000Y-8184200D02*
X10434000Y-8224200D01*
X10434000Y-8184200D02*
X10394000Y-8224200D01*
X10470200Y-6749100D02*
X10510200Y-6789100D01*
X10510200Y-6749100D02*
X10470200Y-6789100D01*
X10470200Y-7142800D02*
X10510200Y-7182800D01*
X10510200Y-7142800D02*
X10470200Y-7182800D01*
X10546400Y-8082600D02*
X10586400Y-8122600D01*
X10586400Y-8082600D02*
X10546400Y-8122600D01*
X10604730Y-10597200D02*
X10644730Y-10637200D01*
X10644730Y-10597200D02*
X10604730Y-10637200D01*
X10698800Y-7999800D02*
X10738800Y-8039800D01*
X10738800Y-7999800D02*
X10698800Y-8039800D01*
X10698800Y-9149400D02*
X10738800Y-9189400D01*
X10738800Y-9149400D02*
X10698800Y-9189400D01*
X10876600Y-10381400D02*
X10916600Y-10421400D01*
X10916600Y-10381400D02*
X10876600Y-10421400D01*
X10952800Y-6507800D02*
X10992800Y-6547800D01*
X10992800Y-6507800D02*
X10952800Y-6547800D01*
X11501259Y-10597200D02*
X11541259Y-10637200D01*
X11541259Y-10597200D02*
X11501259Y-10637200D01*
X11562400Y-7015800D02*
X11602400Y-7055800D01*
X11602400Y-7015800D02*
X11562400Y-7055800D01*
X11664000Y-8133400D02*
X11704000Y-8173400D01*
X11704000Y-8133400D02*
X11664000Y-8173400D01*
X11714800Y-6863400D02*
X11754800Y-6903400D01*
X11754800Y-6863400D02*
X11714800Y-6903400D01*
X11765600Y-10381400D02*
X11805600Y-10421400D01*
X11805600Y-10381400D02*
X11765600Y-10421400D01*
X11918000Y-6863400D02*
X11958000Y-6903400D01*
X11958000Y-6863400D02*
X11918000Y-6903400D01*
X12108500Y-6863400D02*
X12148500Y-6903400D01*
X12148500Y-6863400D02*
X12108500Y-6903400D01*
X12222800Y-6444300D02*
X12262800Y-6484300D01*
X12262800Y-6444300D02*
X12222800Y-6484300D01*
X12397788Y-10597200D02*
X12437788Y-10637200D01*
X12437788Y-10597200D02*
X12397788Y-10637200D01*
X12654600Y-10381400D02*
X12694600Y-10421400D01*
X12694600Y-10381400D02*
X12654600Y-10421400D01*
X12946700Y-7028500D02*
X12986700Y-7068500D01*
X12986700Y-7028500D02*
X12946700Y-7068500D01*
X13294318Y-10597200D02*
X13334318Y-10637200D01*
X13334318Y-10597200D02*
X13294318Y-10637200D01*
X13492800Y-5517200D02*
X13532800Y-5557200D01*
X13532800Y-5517200D02*
X13492800Y-5557200D01*
X13492800Y-6076000D02*
X13532800Y-6116000D01*
X13532800Y-6076000D02*
X13492800Y-6116000D01*
X13569000Y-10381400D02*
X13609000Y-10421400D01*
X13609000Y-10381400D02*
X13569000Y-10421400D01*
X13594400Y-7003100D02*
X13634400Y-7043100D01*
X13634400Y-7003100D02*
X13594400Y-7043100D01*
X13619800Y-6660200D02*
X13659800Y-6700200D01*
X13659800Y-6660200D02*
X13619800Y-6700200D01*
X13721400Y-6660200D02*
X13761400Y-6700200D01*
X13761400Y-6660200D02*
X13721400Y-6700200D01*
X13797600Y-5110800D02*
X13837600Y-5150800D01*
X13837600Y-5110800D02*
X13797600Y-5150800D01*
X13797600Y-5669600D02*
X13837600Y-5709600D01*
X13837600Y-5669600D02*
X13797600Y-5709600D01*
X13823000Y-6660200D02*
X13863000Y-6700200D01*
X13863000Y-6660200D02*
X13823000Y-6700200D01*
X13924600Y-6660200D02*
X13964600Y-6700200D01*
X13964600Y-6660200D02*
X13924600Y-6700200D01*
X14127800Y-5339400D02*
X14167800Y-5379400D01*
X14167800Y-5339400D02*
X14127800Y-5379400D01*
X14127800Y-6584000D02*
X14167800Y-6624000D01*
X14167800Y-6584000D02*
X14127800Y-6624000D01*
X14153200Y-7777800D02*
X14193200Y-7817800D01*
X14193200Y-7777800D02*
X14153200Y-7817800D01*
X14190847Y-10597200D02*
X14230847Y-10637200D01*
X14230847Y-10597200D02*
X14190847Y-10637200D01*
X14280200Y-5339400D02*
X14320200Y-5379400D01*
X14320200Y-5339400D02*
X14280200Y-5379400D01*
X14441400Y-6110200D02*
X14481400Y-6150200D01*
X14481400Y-6110200D02*
X14441400Y-6150200D01*
X14445300Y-5339400D02*
X14485300Y-5379400D01*
X14485300Y-5339400D02*
X14445300Y-5379400D01*
X14610400Y-5339400D02*
X14650400Y-5379400D01*
X14650400Y-5339400D02*
X14610400Y-5379400D01*
X14686600Y-9352600D02*
X14726600Y-9392600D01*
X14726600Y-9352600D02*
X14686600Y-9392600D01*
X14686600Y-9517700D02*
X14726600Y-9557700D01*
X14726600Y-9517700D02*
X14686600Y-9557700D01*
X14686600Y-9682800D02*
X14726600Y-9722800D01*
X14726600Y-9682800D02*
X14686600Y-9722800D01*
X14737400Y-6863400D02*
X14777400Y-6903400D01*
X14777400Y-6863400D02*
X14737400Y-6903400D01*
X14737400Y-6952300D02*
X14777400Y-6992300D01*
X14777400Y-6952300D02*
X14737400Y-6992300D01*
X14737400Y-7041200D02*
X14777400Y-7081200D01*
X14777400Y-7041200D02*
X14737400Y-7081200D01*
X14864400Y-10622600D02*
X14904400Y-10662600D01*
X14904400Y-10622600D02*
X14864400Y-10662600D01*
X14991400Y-5187000D02*
X15031400Y-5227000D01*
X15031400Y-5187000D02*
X14991400Y-5227000D01*
X14991400Y-6304600D02*
X15031400Y-6344600D01*
X15031400Y-6304600D02*
X14991400Y-6344600D01*
X15139800Y-6612200D02*
X15179800Y-6652200D01*
X15179800Y-6612200D02*
X15139800Y-6652200D01*
X15139800Y-6787200D02*
X15179800Y-6827200D01*
X15179800Y-6787200D02*
X15139800Y-6827200D01*
X15143800Y-7600000D02*
X15183800Y-7640000D01*
X15183800Y-7600000D02*
X15143800Y-7640000D01*
X15220000Y-7092000D02*
X15260000Y-7132000D01*
X15260000Y-7092000D02*
X15220000Y-7132000D01*
X15270800Y-6612200D02*
X15310800Y-6652200D01*
X15310800Y-6612200D02*
X15270800Y-6652200D01*
X15270800Y-6787200D02*
X15310800Y-6827200D01*
X15310800Y-6787200D02*
X15270800Y-6827200D01*
X15457400Y-9521600D02*
X15497400Y-9561600D01*
X15497400Y-9521600D02*
X15457400Y-9561600D01*
X15959400Y-8692200D02*
X15999400Y-8732200D01*
X15999400Y-8692200D02*
X15959400Y-8732200D01*
X15959400Y-8823200D02*
X15999400Y-8863200D01*
X15999400Y-8823200D02*
X15959400Y-8863200D01*
X15982000Y-9886000D02*
X16022000Y-9926000D01*
X16022000Y-9886000D02*
X15982000Y-9926000D01*
X16134400Y-8692200D02*
X16174400Y-8732200D01*
X16174400Y-8692200D02*
X16134400Y-8732200D01*
X16134400Y-8823200D02*
X16174400Y-8863200D01*
X16174400Y-8823200D02*
X16134400Y-8863200D01*
X16185200Y-6838000D02*
X16225200Y-6878000D01*
X16225200Y-6838000D02*
X16185200Y-6878000D01*
X16185200Y-7777800D02*
X16225200Y-7817800D01*
X16225200Y-7777800D02*
X16185200Y-7817800D01*
X16210600Y-9225600D02*
X16250600Y-9265600D01*
X16250600Y-9225600D02*
X16210600Y-9265600D01*
X16299500Y-9225600D02*
X16339500Y-9265600D01*
X16339500Y-9225600D02*
X16299500Y-9265600D01*
X16337600Y-5796600D02*
X16377600Y-5836600D01*
X16377600Y-5796600D02*
X16337600Y-5836600D01*
X16337600Y-6330000D02*
X16377600Y-6370000D01*
X16377600Y-6330000D02*
X16337600Y-6370000D01*
X16363000Y-5110800D02*
X16403000Y-5150800D01*
X16403000Y-5110800D02*
X16363000Y-5150800D01*
X16388400Y-9225600D02*
X16428400Y-9265600D01*
X16428400Y-9225600D02*
X16388400Y-9265600D01*
X16439200Y-5796600D02*
X16479200Y-5836600D01*
X16479200Y-5796600D02*
X16439200Y-5836600D01*
X16540800Y-5796600D02*
X16580800Y-5836600D01*
X16580800Y-5796600D02*
X16540800Y-5836600D01*
X16591600Y-6609400D02*
X16631600Y-6649400D01*
X16631600Y-6609400D02*
X16591600Y-6649400D01*
X16693200Y-8844600D02*
X16733200Y-8884600D01*
X16733200Y-8844600D02*
X16693200Y-8884600D01*
X16794800Y-8844600D02*
X16834800Y-8884600D01*
X16834800Y-8844600D02*
X16794800Y-8884600D01*
X16794800Y-8965300D02*
X16834800Y-9005300D01*
X16834800Y-8965300D02*
X16794800Y-9005300D01*
X16794800Y-9632000D02*
X16834800Y-9672000D01*
X16834800Y-9632000D02*
X16794800Y-9672000D01*
X16947200Y-5974400D02*
X16987200Y-6014400D01*
X16987200Y-5974400D02*
X16947200Y-6014400D01*
X16972600Y-5110800D02*
X17012600Y-5150800D01*
X17012600Y-5110800D02*
X16972600Y-5150800D01*
X17048800Y-5974400D02*
X17088800Y-6014400D01*
X17088800Y-5974400D02*
X17048800Y-6014400D01*
X17125000Y-8285800D02*
X17165000Y-8325800D01*
X17165000Y-8285800D02*
X17125000Y-8325800D01*
X17150400Y-5974400D02*
X17190400Y-6014400D01*
X17190400Y-5974400D02*
X17150400Y-6014400D01*
X17175800Y-11130600D02*
X17215800Y-11170600D01*
X17215800Y-11130600D02*
X17175800Y-11170600D01*
X17175800Y-11232200D02*
X17215800Y-11272200D01*
X17215800Y-11232200D02*
X17175800Y-11272200D01*
X17175800Y-11333800D02*
X17215800Y-11373800D01*
X17215800Y-11333800D02*
X17175800Y-11373800D01*
X17201200Y-8235000D02*
X17241200Y-8275000D01*
X17241200Y-8235000D02*
X17201200Y-8275000D01*
X17226600Y-10267000D02*
X17266600Y-10307000D01*
X17266600Y-10267000D02*
X17226600Y-10307000D01*
X17226600Y-10597200D02*
X17266600Y-10637200D01*
X17266600Y-10597200D02*
X17226600Y-10637200D01*
X17277400Y-8285800D02*
X17317400Y-8325800D01*
X17317400Y-8285800D02*
X17277400Y-8325800D01*
X17353600Y-10089200D02*
X17393600Y-10129200D01*
X17393600Y-10089200D02*
X17353600Y-10129200D01*
X17404400Y-5568000D02*
X17444400Y-5608000D01*
X17444400Y-5568000D02*
X17404400Y-5608000D01*
X17404400Y-7854000D02*
X17444400Y-7894000D01*
X17444400Y-7854000D02*
X17404400Y-7894000D01*
X17493300Y-5568000D02*
X17533300Y-5608000D01*
X17533300Y-5568000D02*
X17493300Y-5608000D01*
X17493300Y-7854000D02*
X17533300Y-7894000D01*
X17533300Y-7854000D02*
X17493300Y-7894000D01*
X17582200Y-5568000D02*
X17622200Y-5608000D01*
X17622200Y-5568000D02*
X17582200Y-5608000D01*
X17582200Y-7854000D02*
X17622200Y-7894000D01*
X17622200Y-7854000D02*
X17582200Y-7894000D01*
X17607600Y-7015800D02*
X17647600Y-7055800D01*
X17647600Y-7015800D02*
X17607600Y-7055800D01*
X17607600Y-9301800D02*
X17647600Y-9341800D01*
X17647600Y-9301800D02*
X17607600Y-9341800D01*
X17658400Y-5970400D02*
X17698400Y-6010400D01*
X17698400Y-5970400D02*
X17658400Y-6010400D01*
X17658400Y-6101400D02*
X17698400Y-6141400D01*
X17698400Y-6101400D02*
X17658400Y-6141400D01*
X17658400Y-8256400D02*
X17698400Y-8296400D01*
X17698400Y-8256400D02*
X17658400Y-8296400D01*
X17658400Y-8387400D02*
X17698400Y-8427400D01*
X17698400Y-8387400D02*
X17658400Y-8427400D01*
X17785400Y-7168200D02*
X17825400Y-7208200D01*
X17825400Y-7168200D02*
X17785400Y-7208200D01*
X17785400Y-9428800D02*
X17825400Y-9468800D01*
X17825400Y-9428800D02*
X17785400Y-9468800D01*
X17833400Y-5970400D02*
X17873400Y-6010400D01*
X17873400Y-5970400D02*
X17833400Y-6010400D01*
X17833400Y-6101400D02*
X17873400Y-6141400D01*
X17873400Y-6101400D02*
X17833400Y-6141400D01*
X17833400Y-8256400D02*
X17873400Y-8296400D01*
X17873400Y-8256400D02*
X17833400Y-8296400D01*
X17833400Y-8387400D02*
X17873400Y-8427400D01*
X17873400Y-8387400D02*
X17833400Y-8427400D01*
X18090200Y-6431600D02*
X18130200Y-6471600D01*
X18130200Y-6431600D02*
X18090200Y-6471600D01*
X18268000Y-10140000D02*
X18308000Y-10180000D01*
X18308000Y-10140000D02*
X18268000Y-10180000D01*
X18268000Y-10315000D02*
X18308000Y-10355000D01*
X18308000Y-10315000D02*
X18268000Y-10355000D01*
X18318800Y-9454200D02*
X18358800Y-9494200D01*
X18358800Y-9454200D02*
X18318800Y-9494200D01*
X18335400Y-5272000D02*
X18375400Y-5312000D01*
X18375400Y-5272000D02*
X18335400Y-5312000D01*
X18335400Y-7558000D02*
X18375400Y-7598000D01*
X18375400Y-7558000D02*
X18335400Y-7598000D01*
X18395000Y-7168200D02*
X18435000Y-7208200D01*
X18435000Y-7168200D02*
X18395000Y-7208200D01*
X18399000Y-10140000D02*
X18439000Y-10180000D01*
X18439000Y-10140000D02*
X18399000Y-10180000D01*
X18399000Y-10315000D02*
X18439000Y-10355000D01*
X18439000Y-10315000D02*
X18399000Y-10355000D01*
X18420400Y-9454200D02*
X18460400Y-9494200D01*
X18460400Y-9454200D02*
X18420400Y-9494200D01*
X18420400Y-9555800D02*
X18460400Y-9595800D01*
X18460400Y-9555800D02*
X18420400Y-9595800D01*
X18522000Y-7168200D02*
X18562000Y-7208200D01*
X18562000Y-7168200D02*
X18522000Y-7208200D01*
X18649000Y-7168200D02*
X18689000Y-7208200D01*
X18689000Y-7168200D02*
X18649000Y-7208200D01*
X18649000Y-9454200D02*
X18689000Y-9494200D01*
X18689000Y-9454200D02*
X18649000Y-9494200D01*
X18750600Y-9454200D02*
X18790600Y-9494200D01*
X18790600Y-9454200D02*
X18750600Y-9494200D01*
X18801400Y-9886000D02*
X18841400Y-9926000D01*
X18841400Y-9886000D02*
X18801400Y-9926000D01*
X18801400Y-9974900D02*
X18841400Y-10014900D01*
X18841400Y-9974900D02*
X18801400Y-10014900D01*
X18801400Y-10063800D02*
X18841400Y-10103800D01*
X18841400Y-10063800D02*
X18801400Y-10103800D01*
X18826800Y-7193600D02*
X18866800Y-7233600D01*
X18866800Y-7193600D02*
X18826800Y-7233600D01*
X18903000Y-9454200D02*
X18943000Y-9494200D01*
X18943000Y-9454200D02*
X18903000Y-9494200D01*
X18928400Y-11587800D02*
X18968400Y-11627800D01*
X18968400Y-11587800D02*
X18928400Y-11627800D01*
X19093500Y-11587800D02*
X19133500Y-11627800D01*
X19133500Y-11587800D02*
X19093500Y-11627800D01*
X19097400Y-10817000D02*
X19137400Y-10857000D01*
X19137400Y-10817000D02*
X19097400Y-10857000D01*
X19106200Y-5110800D02*
X19146200Y-5150800D01*
X19146200Y-5110800D02*
X19106200Y-5150800D01*
X19106200Y-5275900D02*
X19146200Y-5315900D01*
X19146200Y-5275900D02*
X19106200Y-5315900D01*
X19106200Y-5441000D02*
X19146200Y-5481000D01*
X19146200Y-5441000D02*
X19106200Y-5481000D01*
X19106200Y-7396800D02*
X19146200Y-7436800D01*
X19146200Y-7396800D02*
X19106200Y-7436800D01*
X19106200Y-7561900D02*
X19146200Y-7601900D01*
X19146200Y-7561900D02*
X19106200Y-7601900D01*
X19106200Y-7727000D02*
X19146200Y-7767000D01*
X19146200Y-7727000D02*
X19106200Y-7767000D01*
X19106200Y-8108000D02*
X19146200Y-8148000D01*
X19146200Y-8108000D02*
X19106200Y-8148000D01*
X19182400Y-5822000D02*
X19222400Y-5862000D01*
X19222400Y-5822000D02*
X19182400Y-5862000D01*
X19258600Y-11587800D02*
X19298600Y-11627800D01*
X19298600Y-11587800D02*
X19258600Y-11627800D01*
X19360200Y-7193600D02*
X19400200Y-7233600D01*
X19400200Y-7193600D02*
X19360200Y-7233600D01*
X19360200Y-9682800D02*
X19400200Y-9722800D01*
X19400200Y-9682800D02*
X19360200Y-9722800D01*
X19360200Y-10292400D02*
X19400200Y-10332400D01*
X19400200Y-10292400D02*
X19360200Y-10332400D01*
X9410700Y-7491730D02*
G75*
G03*
X9334500Y-7491730I-38100J0D01*
G01*
X9334500Y-7491730D02*
G75*
G03*
X9410700Y-7491730I38100J0D01*
G01*
X9410700Y-10031730D02*
G75*
G03*
X9334500Y-10031730I-38100J0D01*
G01*
X9334500Y-10031730D02*
G75*
G03*
X9410700Y-10031730I38100J0D01*
G01*
X9664700Y-7491730D02*
G75*
G03*
X9588500Y-7491730I-38100J0D01*
G01*
X9588500Y-7491730D02*
G75*
G03*
X9664700Y-7491730I38100J0D01*
G01*
X9664700Y-10031730D02*
G75*
G03*
X9588500Y-10031730I-38100J0D01*
G01*
X9588500Y-10031730D02*
G75*
G03*
X9664700Y-10031730I38100J0D01*
G01*
X9918700Y-7491730D02*
G75*
G03*
X9842500Y-7491730I-38100J0D01*
G01*
X9842500Y-7491730D02*
G75*
G03*
X9918700Y-7491730I38100J0D01*
G01*
X9918700Y-10031730D02*
G75*
G03*
X9842500Y-10031730I-38100J0D01*
G01*
X9842500Y-10031730D02*
G75*
G03*
X9918700Y-10031730I38100J0D01*
G01*
X10172700Y-7491730D02*
G75*
G03*
X10096500Y-7491730I-38100J0D01*
G01*
X10096500Y-7491730D02*
G75*
G03*
X10172700Y-7491730I38100J0D01*
G01*
X10172700Y-10031730D02*
G75*
G03*
X10096500Y-10031730I-38100J0D01*
G01*
X10096500Y-10031730D02*
G75*
G03*
X10172700Y-10031730I38100J0D01*
G01*
X10426700Y-7491730D02*
G75*
G03*
X10350500Y-7491730I-38100J0D01*
G01*
X10350500Y-7491730D02*
G75*
G03*
X10426700Y-7491730I38100J0D01*
G01*
X10426700Y-10031730D02*
G75*
G03*
X10350500Y-10031730I-38100J0D01*
G01*
X10350500Y-10031730D02*
G75*
G03*
X10426700Y-10031730I38100J0D01*
G01*
X10680700Y-7491730D02*
G75*
G03*
X10604500Y-7491730I-38100J0D01*
G01*
X10604500Y-7491730D02*
G75*
G03*
X10680700Y-7491730I38100J0D01*
G01*
X10680700Y-10031730D02*
G75*
G03*
X10604500Y-10031730I-38100J0D01*
G01*
X10604500Y-10031730D02*
G75*
G03*
X10680700Y-10031730I38100J0D01*
G01*
X10934700Y-7491730D02*
G75*
G03*
X10858500Y-7491730I-38100J0D01*
G01*
X10858500Y-7491730D02*
G75*
G03*
X10934700Y-7491730I38100J0D01*
G01*
X10934700Y-10031730D02*
G75*
G03*
X10858500Y-10031730I-38100J0D01*
G01*
X10858500Y-10031730D02*
G75*
G03*
X10934700Y-10031730I38100J0D01*
G01*
X11188700Y-7491730D02*
G75*
G03*
X11112500Y-7491730I-38100J0D01*
G01*
X11112500Y-7491730D02*
G75*
G03*
X11188700Y-7491730I38100J0D01*
G01*
X11188700Y-10031730D02*
G75*
G03*
X11112500Y-10031730I-38100J0D01*
G01*
X11112500Y-10031730D02*
G75*
G03*
X11188700Y-10031730I38100J0D01*
G01*
X11442700Y-7491730D02*
G75*
G03*
X11366500Y-7491730I-38100J0D01*
G01*
X11366500Y-7491730D02*
G75*
G03*
X11442700Y-7491730I38100J0D01*
G01*
X11442700Y-10031730D02*
G75*
G03*
X11366500Y-10031730I-38100J0D01*
G01*
X11366500Y-10031730D02*
G75*
G03*
X11442700Y-10031730I38100J0D01*
G01*
X11696700Y-7491730D02*
G75*
G03*
X11620500Y-7491730I-38100J0D01*
G01*
X11620500Y-7491730D02*
G75*
G03*
X11696700Y-7491730I38100J0D01*
G01*
X11696700Y-10031730D02*
G75*
G03*
X11620500Y-10031730I-38100J0D01*
G01*
X11620500Y-10031730D02*
G75*
G03*
X11696700Y-10031730I38100J0D01*
G01*
X11950700Y-7491730D02*
G75*
G03*
X11874500Y-7491730I-38100J0D01*
G01*
X11874500Y-7491730D02*
G75*
G03*
X11950700Y-7491730I38100J0D01*
G01*
X11950700Y-10031730D02*
G75*
G03*
X11874500Y-10031730I-38100J0D01*
G01*
X11874500Y-10031730D02*
G75*
G03*
X11950700Y-10031730I38100J0D01*
G01*
X12204700Y-7491730D02*
G75*
G03*
X12128500Y-7491730I-38100J0D01*
G01*
X12128500Y-7491730D02*
G75*
G03*
X12204700Y-7491730I38100J0D01*
G01*
X12204700Y-10031730D02*
G75*
G03*
X12128500Y-10031730I-38100J0D01*
G01*
X12128500Y-10031730D02*
G75*
G03*
X12204700Y-10031730I38100J0D01*
G01*
X12458700Y-7491730D02*
G75*
G03*
X12382500Y-7491730I-38100J0D01*
G01*
X12382500Y-7491730D02*
G75*
G03*
X12458700Y-7491730I38100J0D01*
G01*
X12458700Y-10031730D02*
G75*
G03*
X12382500Y-10031730I-38100J0D01*
G01*
X12382500Y-10031730D02*
G75*
G03*
X12458700Y-10031730I38100J0D01*
G01*
X12712700Y-7491730D02*
G75*
G03*
X12636500Y-7491730I-38100J0D01*
G01*
X12636500Y-7491730D02*
G75*
G03*
X12712700Y-7491730I38100J0D01*
G01*
X12712700Y-10031730D02*
G75*
G03*
X12636500Y-10031730I-38100J0D01*
G01*
X12636500Y-10031730D02*
G75*
G03*
X12712700Y-10031730I38100J0D01*
G01*
X12966700Y-7491730D02*
G75*
G03*
X12890500Y-7491730I-38100J0D01*
G01*
X12890500Y-7491730D02*
G75*
G03*
X12966700Y-7491730I38100J0D01*
G01*
X12966700Y-10031730D02*
G75*
G03*
X12890500Y-10031730I-38100J0D01*
G01*
X12890500Y-10031730D02*
G75*
G03*
X12966700Y-10031730I38100J0D01*
G01*
D12*
X12901200Y-6255700D02*
X12901200Y-6356700D01*
X12850700Y-6306200D02*
X12951700Y-6306200D01*
X13411200Y-6375700D02*
X13411200Y-6476700D01*
X13360700Y-6426200D02*
X13461700Y-6426200D01*
D13*
X9376727Y-11589427D02*
X9376727Y-11504573D01*
X9291873Y-11504573D01*
X9291873Y-11589427D01*
X9376727Y-11589427D01*
X9726727Y-11589427D02*
X9726727Y-11504573D01*
X9641873Y-11504573D01*
X9641873Y-11589427D01*
X9726727Y-11589427D01*
X10273256Y-11589427D02*
X10273256Y-11504573D01*
X10188403Y-11504573D01*
X10188403Y-11589427D01*
X10273256Y-11589427D01*
X10623256Y-11589427D02*
X10623256Y-11504573D01*
X10538403Y-11504573D01*
X10538403Y-11589427D01*
X10623256Y-11589427D01*
X11169786Y-11589427D02*
X11169786Y-11504573D01*
X11084932Y-11504573D01*
X11084932Y-11589427D01*
X11169786Y-11589427D01*
X11519786Y-11589427D02*
X11519786Y-11504573D01*
X11434932Y-11504573D01*
X11434932Y-11589427D01*
X11519786Y-11589427D01*
X12066315Y-11589427D02*
X12066315Y-11504573D01*
X11981462Y-11504573D01*
X11981462Y-11589427D01*
X12066315Y-11589427D01*
X12416315Y-11589427D02*
X12416315Y-11504573D01*
X12331462Y-11504573D01*
X12331462Y-11589427D01*
X12416315Y-11589427D01*
X12962845Y-11589427D02*
X12962845Y-11504573D01*
X12877991Y-11504573D01*
X12877991Y-11589427D01*
X12962845Y-11589427D01*
X13312845Y-11589427D02*
X13312845Y-11504573D01*
X13227991Y-11504573D01*
X13227991Y-11589427D01*
X13312845Y-11589427D01*
X13859374Y-11589427D02*
X13859374Y-11504573D01*
X13774521Y-11504573D01*
X13774521Y-11589427D01*
X13859374Y-11589427D01*
X14209374Y-11589427D02*
X14209374Y-11504573D01*
X14124521Y-11504573D01*
X14124521Y-11589427D01*
X14209374Y-11589427D01*
X14887227Y-11548627D02*
X14887227Y-11463773D01*
X14802373Y-11463773D01*
X14802373Y-11548627D01*
X14887227Y-11548627D01*
X15237227Y-11548627D02*
X15237227Y-11463773D01*
X15152373Y-11463773D01*
X15152373Y-11548627D01*
X15237227Y-11548627D01*
X15587227Y-11548627D02*
X15587227Y-11463773D01*
X15502373Y-11463773D01*
X15502373Y-11548627D01*
X15587227Y-11548627D01*
X16196827Y-11548627D02*
X16196827Y-11463773D01*
X16111973Y-11463773D01*
X16111973Y-11548627D01*
X16196827Y-11548627D01*
X16546827Y-11548627D02*
X16546827Y-11463773D01*
X16461973Y-11463773D01*
X16461973Y-11548627D01*
X16546827Y-11548627D01*
X16896827Y-11548627D02*
X16896827Y-11463773D01*
X16811973Y-11463773D01*
X16811973Y-11548627D01*
X16896827Y-11548627D01*
D14*
X11348300Y-5633500D02*
X11424300Y-5557500D01*
X11348300Y-5481500D01*
X11272300Y-5557500D01*
X11348300Y-5633500D01*
X11856300Y-5633500D02*
X11932300Y-5557500D01*
X11856300Y-5481500D01*
X11780300Y-5557500D01*
X11856300Y-5633500D01*
X12446000Y-5633500D02*
X12522000Y-5557500D01*
X12446000Y-5481500D01*
X12370000Y-5557500D01*
X12446000Y-5633500D01*
X12954000Y-5633500D02*
X13030000Y-5557500D01*
X12954000Y-5481500D01*
X12878000Y-5557500D01*
X12954000Y-5633500D01*
D11*
X8586977Y-12305284D02*
X8586977Y-12105284D01*
X8586977Y-12105284D02*
X8634596Y-12105284D01*
X8634596Y-12105284D02*
X8663167Y-12114808D01*
X8663167Y-12114808D02*
X8682215Y-12133855D01*
X8682215Y-12133855D02*
X8691739Y-12152903D01*
X8691739Y-12152903D02*
X8701263Y-12190998D01*
X8701263Y-12190998D02*
X8701263Y-12219569D01*
X8701263Y-12219569D02*
X8691739Y-12257665D01*
X8691739Y-12257665D02*
X8682215Y-12276712D01*
X8682215Y-12276712D02*
X8663167Y-12295760D01*
X8663167Y-12295760D02*
X8634596Y-12305284D01*
X8634596Y-12305284D02*
X8586977Y-12305284D01*
X8786977Y-12305284D02*
X8786977Y-12171950D01*
X8786977Y-12210046D02*
X8796501Y-12190998D01*
X8796501Y-12190998D02*
X8806024Y-12181474D01*
X8806024Y-12181474D02*
X8825072Y-12171950D01*
X8825072Y-12171950D02*
X8844120Y-12171950D01*
X8910786Y-12305284D02*
X8910786Y-12171950D01*
X8910786Y-12105284D02*
X8901263Y-12114808D01*
X8901263Y-12114808D02*
X8910786Y-12124331D01*
X8910786Y-12124331D02*
X8920310Y-12114808D01*
X8920310Y-12114808D02*
X8910786Y-12105284D01*
X8910786Y-12105284D02*
X8910786Y-12124331D01*
X9034596Y-12305284D02*
X9015548Y-12295760D01*
X9015548Y-12295760D02*
X9006024Y-12276712D01*
X9006024Y-12276712D02*
X9006024Y-12105284D01*
X9139358Y-12305284D02*
X9120310Y-12295760D01*
X9120310Y-12295760D02*
X9110786Y-12276712D01*
X9110786Y-12276712D02*
X9110786Y-12105284D01*
X9367929Y-12305284D02*
X9367929Y-12105284D01*
X9367929Y-12105284D02*
X9434596Y-12248141D01*
X9434596Y-12248141D02*
X9501263Y-12105284D01*
X9501263Y-12105284D02*
X9501263Y-12305284D01*
X9682215Y-12305284D02*
X9682215Y-12200522D01*
X9682215Y-12200522D02*
X9672691Y-12181474D01*
X9672691Y-12181474D02*
X9653644Y-12171950D01*
X9653644Y-12171950D02*
X9615548Y-12171950D01*
X9615548Y-12171950D02*
X9596501Y-12181474D01*
X9682215Y-12295760D02*
X9663167Y-12305284D01*
X9663167Y-12305284D02*
X9615548Y-12305284D01*
X9615548Y-12305284D02*
X9596501Y-12295760D01*
X9596501Y-12295760D02*
X9586977Y-12276712D01*
X9586977Y-12276712D02*
X9586977Y-12257665D01*
X9586977Y-12257665D02*
X9596501Y-12238617D01*
X9596501Y-12238617D02*
X9615548Y-12229093D01*
X9615548Y-12229093D02*
X9663167Y-12229093D01*
X9663167Y-12229093D02*
X9682215Y-12219569D01*
X9777453Y-12171950D02*
X9777453Y-12371950D01*
X9777453Y-12181474D02*
X9796501Y-12171950D01*
X9796501Y-12171950D02*
X9834596Y-12171950D01*
X9834596Y-12171950D02*
X9853644Y-12181474D01*
X9853644Y-12181474D02*
X9863167Y-12190998D01*
X9863167Y-12190998D02*
X9872691Y-12210046D01*
X9872691Y-12210046D02*
X9872691Y-12267188D01*
X9872691Y-12267188D02*
X9863167Y-12286236D01*
X9863167Y-12286236D02*
X9853644Y-12295760D01*
X9853644Y-12295760D02*
X9834596Y-12305284D01*
X9834596Y-12305284D02*
X9796501Y-12305284D01*
X9796501Y-12305284D02*
X9777453Y-12295760D01*
X9958405Y-12286236D02*
X9967929Y-12295760D01*
X9967929Y-12295760D02*
X9958405Y-12305284D01*
X9958405Y-12305284D02*
X9948882Y-12295760D01*
X9948882Y-12295760D02*
X9958405Y-12286236D01*
X9958405Y-12286236D02*
X9958405Y-12305284D01*
X9958405Y-12181474D02*
X9967929Y-12190998D01*
X9967929Y-12190998D02*
X9958405Y-12200522D01*
X9958405Y-12200522D02*
X9948882Y-12190998D01*
X9948882Y-12190998D02*
X9958405Y-12181474D01*
X9958405Y-12181474D02*
X9958405Y-12200522D01*
D10*
X8286200Y-12613800D02*
X8326200Y-12653800D01*
X8326200Y-12613800D02*
X8286200Y-12653800D01*
D11*
X8625072Y-12525284D02*
X8644120Y-12525284D01*
X8644120Y-12525284D02*
X8663167Y-12534808D01*
X8663167Y-12534808D02*
X8672691Y-12544331D01*
X8672691Y-12544331D02*
X8682215Y-12563379D01*
X8682215Y-12563379D02*
X8691739Y-12601474D01*
X8691739Y-12601474D02*
X8691739Y-12649093D01*
X8691739Y-12649093D02*
X8682215Y-12687188D01*
X8682215Y-12687188D02*
X8672691Y-12706236D01*
X8672691Y-12706236D02*
X8663167Y-12715760D01*
X8663167Y-12715760D02*
X8644120Y-12725284D01*
X8644120Y-12725284D02*
X8625072Y-12725284D01*
X8625072Y-12725284D02*
X8606024Y-12715760D01*
X8606024Y-12715760D02*
X8596501Y-12706236D01*
X8596501Y-12706236D02*
X8586977Y-12687188D01*
X8586977Y-12687188D02*
X8577453Y-12649093D01*
X8577453Y-12649093D02*
X8577453Y-12601474D01*
X8577453Y-12601474D02*
X8586977Y-12563379D01*
X8586977Y-12563379D02*
X8596501Y-12544331D01*
X8596501Y-12544331D02*
X8606024Y-12534808D01*
X8606024Y-12534808D02*
X8625072Y-12525284D01*
X8777453Y-12706236D02*
X8786977Y-12715760D01*
X8786977Y-12715760D02*
X8777453Y-12725284D01*
X8777453Y-12725284D02*
X8767929Y-12715760D01*
X8767929Y-12715760D02*
X8777453Y-12706236D01*
X8777453Y-12706236D02*
X8777453Y-12725284D01*
X8958405Y-12591950D02*
X8958405Y-12725284D01*
X8910786Y-12515760D02*
X8863167Y-12658617D01*
X8863167Y-12658617D02*
X8986977Y-12658617D01*
X9101263Y-12525284D02*
X9120310Y-12525284D01*
X9120310Y-12525284D02*
X9139358Y-12534808D01*
X9139358Y-12534808D02*
X9148882Y-12544331D01*
X9148882Y-12544331D02*
X9158405Y-12563379D01*
X9158405Y-12563379D02*
X9167929Y-12601474D01*
X9167929Y-12601474D02*
X9167929Y-12649093D01*
X9167929Y-12649093D02*
X9158405Y-12687188D01*
X9158405Y-12687188D02*
X9148882Y-12706236D01*
X9148882Y-12706236D02*
X9139358Y-12715760D01*
X9139358Y-12715760D02*
X9120310Y-12725284D01*
X9120310Y-12725284D02*
X9101263Y-12725284D01*
X9101263Y-12725284D02*
X9082215Y-12715760D01*
X9082215Y-12715760D02*
X9072691Y-12706236D01*
X9072691Y-12706236D02*
X9063167Y-12687188D01*
X9063167Y-12687188D02*
X9053644Y-12649093D01*
X9053644Y-12649093D02*
X9053644Y-12601474D01*
X9053644Y-12601474D02*
X9063167Y-12563379D01*
X9063167Y-12563379D02*
X9072691Y-12544331D01*
X9072691Y-12544331D02*
X9082215Y-12534808D01*
X9082215Y-12534808D02*
X9101263Y-12525284D01*
X9291739Y-12525284D02*
X9310786Y-12525284D01*
X9310786Y-12525284D02*
X9329834Y-12534808D01*
X9329834Y-12534808D02*
X9339358Y-12544331D01*
X9339358Y-12544331D02*
X9348882Y-12563379D01*
X9348882Y-12563379D02*
X9358405Y-12601474D01*
X9358405Y-12601474D02*
X9358405Y-12649093D01*
X9358405Y-12649093D02*
X9348882Y-12687188D01*
X9348882Y-12687188D02*
X9339358Y-12706236D01*
X9339358Y-12706236D02*
X9329834Y-12715760D01*
X9329834Y-12715760D02*
X9310786Y-12725284D01*
X9310786Y-12725284D02*
X9291739Y-12725284D01*
X9291739Y-12725284D02*
X9272691Y-12715760D01*
X9272691Y-12715760D02*
X9263167Y-12706236D01*
X9263167Y-12706236D02*
X9253644Y-12687188D01*
X9253644Y-12687188D02*
X9244120Y-12649093D01*
X9244120Y-12649093D02*
X9244120Y-12601474D01*
X9244120Y-12601474D02*
X9253644Y-12563379D01*
X9253644Y-12563379D02*
X9263167Y-12544331D01*
X9263167Y-12544331D02*
X9272691Y-12534808D01*
X9272691Y-12534808D02*
X9291739Y-12525284D01*
X9444120Y-12725284D02*
X9444120Y-12591950D01*
X9444120Y-12610998D02*
X9453644Y-12601474D01*
X9453644Y-12601474D02*
X9472691Y-12591950D01*
X9472691Y-12591950D02*
X9501263Y-12591950D01*
X9501263Y-12591950D02*
X9520310Y-12601474D01*
X9520310Y-12601474D02*
X9529834Y-12620522D01*
X9529834Y-12620522D02*
X9529834Y-12725284D01*
X9529834Y-12620522D02*
X9539358Y-12601474D01*
X9539358Y-12601474D02*
X9558405Y-12591950D01*
X9558405Y-12591950D02*
X9586977Y-12591950D01*
X9586977Y-12591950D02*
X9606025Y-12601474D01*
X9606025Y-12601474D02*
X9615548Y-12620522D01*
X9615548Y-12620522D02*
X9615548Y-12725284D01*
X9710786Y-12725284D02*
X9710786Y-12591950D01*
X9710786Y-12610998D02*
X9720310Y-12601474D01*
X9720310Y-12601474D02*
X9739358Y-12591950D01*
X9739358Y-12591950D02*
X9767929Y-12591950D01*
X9767929Y-12591950D02*
X9786977Y-12601474D01*
X9786977Y-12601474D02*
X9796501Y-12620522D01*
X9796501Y-12620522D02*
X9796501Y-12725284D01*
X9796501Y-12620522D02*
X9806025Y-12601474D01*
X9806025Y-12601474D02*
X9825072Y-12591950D01*
X9825072Y-12591950D02*
X9853644Y-12591950D01*
X9853644Y-12591950D02*
X9872691Y-12601474D01*
X9872691Y-12601474D02*
X9882215Y-12620522D01*
X9882215Y-12620522D02*
X9882215Y-12725284D01*
X10272691Y-12515760D02*
X10101263Y-12772903D01*
X10529834Y-12525284D02*
X10548882Y-12525284D01*
X10548882Y-12525284D02*
X10567929Y-12534808D01*
X10567929Y-12534808D02*
X10577453Y-12544331D01*
X10577453Y-12544331D02*
X10586977Y-12563379D01*
X10586977Y-12563379D02*
X10596501Y-12601474D01*
X10596501Y-12601474D02*
X10596501Y-12649093D01*
X10596501Y-12649093D02*
X10586977Y-12687188D01*
X10586977Y-12687188D02*
X10577453Y-12706236D01*
X10577453Y-12706236D02*
X10567929Y-12715760D01*
X10567929Y-12715760D02*
X10548882Y-12725284D01*
X10548882Y-12725284D02*
X10529834Y-12725284D01*
X10529834Y-12725284D02*
X10510787Y-12715760D01*
X10510787Y-12715760D02*
X10501263Y-12706236D01*
X10501263Y-12706236D02*
X10491739Y-12687188D01*
X10491739Y-12687188D02*
X10482215Y-12649093D01*
X10482215Y-12649093D02*
X10482215Y-12601474D01*
X10482215Y-12601474D02*
X10491739Y-12563379D01*
X10491739Y-12563379D02*
X10501263Y-12544331D01*
X10501263Y-12544331D02*
X10510787Y-12534808D01*
X10510787Y-12534808D02*
X10529834Y-12525284D01*
X10682215Y-12706236D02*
X10691739Y-12715760D01*
X10691739Y-12715760D02*
X10682215Y-12725284D01*
X10682215Y-12725284D02*
X10672691Y-12715760D01*
X10672691Y-12715760D02*
X10682215Y-12706236D01*
X10682215Y-12706236D02*
X10682215Y-12725284D01*
X10815548Y-12525284D02*
X10834596Y-12525284D01*
X10834596Y-12525284D02*
X10853644Y-12534808D01*
X10853644Y-12534808D02*
X10863168Y-12544331D01*
X10863168Y-12544331D02*
X10872691Y-12563379D01*
X10872691Y-12563379D02*
X10882215Y-12601474D01*
X10882215Y-12601474D02*
X10882215Y-12649093D01*
X10882215Y-12649093D02*
X10872691Y-12687188D01*
X10872691Y-12687188D02*
X10863168Y-12706236D01*
X10863168Y-12706236D02*
X10853644Y-12715760D01*
X10853644Y-12715760D02*
X10834596Y-12725284D01*
X10834596Y-12725284D02*
X10815548Y-12725284D01*
X10815548Y-12725284D02*
X10796501Y-12715760D01*
X10796501Y-12715760D02*
X10786977Y-12706236D01*
X10786977Y-12706236D02*
X10777453Y-12687188D01*
X10777453Y-12687188D02*
X10767929Y-12649093D01*
X10767929Y-12649093D02*
X10767929Y-12601474D01*
X10767929Y-12601474D02*
X10777453Y-12563379D01*
X10777453Y-12563379D02*
X10786977Y-12544331D01*
X10786977Y-12544331D02*
X10796501Y-12534808D01*
X10796501Y-12534808D02*
X10815548Y-12525284D01*
X11072691Y-12725284D02*
X10958406Y-12725284D01*
X11015548Y-12725284D02*
X11015548Y-12525284D01*
X11015548Y-12525284D02*
X10996501Y-12553855D01*
X10996501Y-12553855D02*
X10977453Y-12572903D01*
X10977453Y-12572903D02*
X10958406Y-12582427D01*
X11253644Y-12525284D02*
X11158406Y-12525284D01*
X11158406Y-12525284D02*
X11148882Y-12620522D01*
X11148882Y-12620522D02*
X11158406Y-12610998D01*
X11158406Y-12610998D02*
X11177453Y-12601474D01*
X11177453Y-12601474D02*
X11225072Y-12601474D01*
X11225072Y-12601474D02*
X11244120Y-12610998D01*
X11244120Y-12610998D02*
X11253644Y-12620522D01*
X11253644Y-12620522D02*
X11263167Y-12639569D01*
X11263167Y-12639569D02*
X11263167Y-12687188D01*
X11263167Y-12687188D02*
X11253644Y-12706236D01*
X11253644Y-12706236D02*
X11244120Y-12715760D01*
X11244120Y-12715760D02*
X11225072Y-12725284D01*
X11225072Y-12725284D02*
X11177453Y-12725284D01*
X11177453Y-12725284D02*
X11158406Y-12715760D01*
X11158406Y-12715760D02*
X11148882Y-12706236D01*
X11329834Y-12525284D02*
X11463167Y-12525284D01*
X11463167Y-12525284D02*
X11377453Y-12725284D01*
X11529834Y-12525284D02*
X11529834Y-12563379D01*
X11606025Y-12525284D02*
X11606025Y-12563379D01*
X11901263Y-12801474D02*
X11891739Y-12791950D01*
X11891739Y-12791950D02*
X11872691Y-12763379D01*
X11872691Y-12763379D02*
X11863168Y-12744331D01*
X11863168Y-12744331D02*
X11853644Y-12715760D01*
X11853644Y-12715760D02*
X11844120Y-12668141D01*
X11844120Y-12668141D02*
X11844120Y-12630046D01*
X11844120Y-12630046D02*
X11853644Y-12582427D01*
X11853644Y-12582427D02*
X11863168Y-12553855D01*
X11863168Y-12553855D02*
X11872691Y-12534808D01*
X11872691Y-12534808D02*
X11891739Y-12506236D01*
X11891739Y-12506236D02*
X11901263Y-12496712D01*
X12082215Y-12725284D02*
X11967929Y-12725284D01*
X12025072Y-12725284D02*
X12025072Y-12525284D01*
X12025072Y-12525284D02*
X12006025Y-12553855D01*
X12006025Y-12553855D02*
X11986977Y-12572903D01*
X11986977Y-12572903D02*
X11967929Y-12582427D01*
X12253644Y-12525284D02*
X12215548Y-12525284D01*
X12215548Y-12525284D02*
X12196501Y-12534808D01*
X12196501Y-12534808D02*
X12186977Y-12544331D01*
X12186977Y-12544331D02*
X12167929Y-12572903D01*
X12167929Y-12572903D02*
X12158406Y-12610998D01*
X12158406Y-12610998D02*
X12158406Y-12687188D01*
X12158406Y-12687188D02*
X12167929Y-12706236D01*
X12167929Y-12706236D02*
X12177453Y-12715760D01*
X12177453Y-12715760D02*
X12196501Y-12725284D01*
X12196501Y-12725284D02*
X12234596Y-12725284D01*
X12234596Y-12725284D02*
X12253644Y-12715760D01*
X12253644Y-12715760D02*
X12263168Y-12706236D01*
X12263168Y-12706236D02*
X12272691Y-12687188D01*
X12272691Y-12687188D02*
X12272691Y-12639569D01*
X12272691Y-12639569D02*
X12263168Y-12620522D01*
X12263168Y-12620522D02*
X12253644Y-12610998D01*
X12253644Y-12610998D02*
X12234596Y-12601474D01*
X12234596Y-12601474D02*
X12196501Y-12601474D01*
X12196501Y-12601474D02*
X12177453Y-12610998D01*
X12177453Y-12610998D02*
X12167929Y-12620522D01*
X12167929Y-12620522D02*
X12158406Y-12639569D01*
X12339358Y-12525284D02*
X12472691Y-12525284D01*
X12472691Y-12525284D02*
X12386977Y-12725284D01*
X12701263Y-12725284D02*
X12701263Y-12525284D01*
X12786977Y-12725284D02*
X12786977Y-12620522D01*
X12786977Y-12620522D02*
X12777453Y-12601474D01*
X12777453Y-12601474D02*
X12758406Y-12591950D01*
X12758406Y-12591950D02*
X12729834Y-12591950D01*
X12729834Y-12591950D02*
X12710787Y-12601474D01*
X12710787Y-12601474D02*
X12701263Y-12610998D01*
X12910787Y-12725284D02*
X12891739Y-12715760D01*
X12891739Y-12715760D02*
X12882215Y-12706236D01*
X12882215Y-12706236D02*
X12872691Y-12687188D01*
X12872691Y-12687188D02*
X12872691Y-12630046D01*
X12872691Y-12630046D02*
X12882215Y-12610998D01*
X12882215Y-12610998D02*
X12891739Y-12601474D01*
X12891739Y-12601474D02*
X12910787Y-12591950D01*
X12910787Y-12591950D02*
X12939358Y-12591950D01*
X12939358Y-12591950D02*
X12958406Y-12601474D01*
X12958406Y-12601474D02*
X12967930Y-12610998D01*
X12967930Y-12610998D02*
X12977453Y-12630046D01*
X12977453Y-12630046D02*
X12977453Y-12687188D01*
X12977453Y-12687188D02*
X12967930Y-12706236D01*
X12967930Y-12706236D02*
X12958406Y-12715760D01*
X12958406Y-12715760D02*
X12939358Y-12725284D01*
X12939358Y-12725284D02*
X12910787Y-12725284D01*
X13091739Y-12725284D02*
X13072691Y-12715760D01*
X13072691Y-12715760D02*
X13063168Y-12696712D01*
X13063168Y-12696712D02*
X13063168Y-12525284D01*
X13244120Y-12715760D02*
X13225072Y-12725284D01*
X13225072Y-12725284D02*
X13186977Y-12725284D01*
X13186977Y-12725284D02*
X13167930Y-12715760D01*
X13167930Y-12715760D02*
X13158406Y-12696712D01*
X13158406Y-12696712D02*
X13158406Y-12620522D01*
X13158406Y-12620522D02*
X13167930Y-12601474D01*
X13167930Y-12601474D02*
X13186977Y-12591950D01*
X13186977Y-12591950D02*
X13225072Y-12591950D01*
X13225072Y-12591950D02*
X13244120Y-12601474D01*
X13244120Y-12601474D02*
X13253644Y-12620522D01*
X13253644Y-12620522D02*
X13253644Y-12639569D01*
X13253644Y-12639569D02*
X13158406Y-12658617D01*
X13329834Y-12715760D02*
X13348882Y-12725284D01*
X13348882Y-12725284D02*
X13386977Y-12725284D01*
X13386977Y-12725284D02*
X13406025Y-12715760D01*
X13406025Y-12715760D02*
X13415549Y-12696712D01*
X13415549Y-12696712D02*
X13415549Y-12687188D01*
X13415549Y-12687188D02*
X13406025Y-12668141D01*
X13406025Y-12668141D02*
X13386977Y-12658617D01*
X13386977Y-12658617D02*
X13358406Y-12658617D01*
X13358406Y-12658617D02*
X13339358Y-12649093D01*
X13339358Y-12649093D02*
X13329834Y-12630046D01*
X13329834Y-12630046D02*
X13329834Y-12620522D01*
X13329834Y-12620522D02*
X13339358Y-12601474D01*
X13339358Y-12601474D02*
X13358406Y-12591950D01*
X13358406Y-12591950D02*
X13386977Y-12591950D01*
X13386977Y-12591950D02*
X13406025Y-12601474D01*
X13482215Y-12801474D02*
X13491739Y-12791950D01*
X13491739Y-12791950D02*
X13510787Y-12763379D01*
X13510787Y-12763379D02*
X13520311Y-12744331D01*
X13520311Y-12744331D02*
X13529834Y-12715760D01*
X13529834Y-12715760D02*
X13539358Y-12668141D01*
X13539358Y-12668141D02*
X13539358Y-12630046D01*
X13539358Y-12630046D02*
X13529834Y-12582427D01*
X13529834Y-12582427D02*
X13520311Y-12553855D01*
X13520311Y-12553855D02*
X13510787Y-12534808D01*
X13510787Y-12534808D02*
X13491739Y-12506236D01*
X13491739Y-12506236D02*
X13482215Y-12496712D01*
D10*
X8326200Y-12897800D02*
G75*
G03*
X8250000Y-12897800I-38100J0D01*
G01*
X8250000Y-12897800D02*
G75*
G03*
X8326200Y-12897800I38100J0D01*
G01*
D11*
X8625072Y-12789284D02*
X8644120Y-12789284D01*
X8644120Y-12789284D02*
X8663167Y-12798808D01*
X8663167Y-12798808D02*
X8672691Y-12808331D01*
X8672691Y-12808331D02*
X8682215Y-12827379D01*
X8682215Y-12827379D02*
X8691739Y-12865474D01*
X8691739Y-12865474D02*
X8691739Y-12913093D01*
X8691739Y-12913093D02*
X8682215Y-12951188D01*
X8682215Y-12951188D02*
X8672691Y-12970236D01*
X8672691Y-12970236D02*
X8663167Y-12979760D01*
X8663167Y-12979760D02*
X8644120Y-12989284D01*
X8644120Y-12989284D02*
X8625072Y-12989284D01*
X8625072Y-12989284D02*
X8606024Y-12979760D01*
X8606024Y-12979760D02*
X8596501Y-12970236D01*
X8596501Y-12970236D02*
X8586977Y-12951188D01*
X8586977Y-12951188D02*
X8577453Y-12913093D01*
X8577453Y-12913093D02*
X8577453Y-12865474D01*
X8577453Y-12865474D02*
X8586977Y-12827379D01*
X8586977Y-12827379D02*
X8596501Y-12808331D01*
X8596501Y-12808331D02*
X8606024Y-12798808D01*
X8606024Y-12798808D02*
X8625072Y-12789284D01*
X8777453Y-12970236D02*
X8786977Y-12979760D01*
X8786977Y-12979760D02*
X8777453Y-12989284D01*
X8777453Y-12989284D02*
X8767929Y-12979760D01*
X8767929Y-12979760D02*
X8777453Y-12970236D01*
X8777453Y-12970236D02*
X8777453Y-12989284D01*
X8853644Y-12789284D02*
X8986977Y-12789284D01*
X8986977Y-12789284D02*
X8901263Y-12989284D01*
X9148882Y-12789284D02*
X9110786Y-12789284D01*
X9110786Y-12789284D02*
X9091739Y-12798808D01*
X9091739Y-12798808D02*
X9082215Y-12808331D01*
X9082215Y-12808331D02*
X9063167Y-12836903D01*
X9063167Y-12836903D02*
X9053644Y-12874998D01*
X9053644Y-12874998D02*
X9053644Y-12951188D01*
X9053644Y-12951188D02*
X9063167Y-12970236D01*
X9063167Y-12970236D02*
X9072691Y-12979760D01*
X9072691Y-12979760D02*
X9091739Y-12989284D01*
X9091739Y-12989284D02*
X9129834Y-12989284D01*
X9129834Y-12989284D02*
X9148882Y-12979760D01*
X9148882Y-12979760D02*
X9158405Y-12970236D01*
X9158405Y-12970236D02*
X9167929Y-12951188D01*
X9167929Y-12951188D02*
X9167929Y-12903569D01*
X9167929Y-12903569D02*
X9158405Y-12884522D01*
X9158405Y-12884522D02*
X9148882Y-12874998D01*
X9148882Y-12874998D02*
X9129834Y-12865474D01*
X9129834Y-12865474D02*
X9091739Y-12865474D01*
X9091739Y-12865474D02*
X9072691Y-12874998D01*
X9072691Y-12874998D02*
X9063167Y-12884522D01*
X9063167Y-12884522D02*
X9053644Y-12903569D01*
X9244120Y-12808331D02*
X9253644Y-12798808D01*
X9253644Y-12798808D02*
X9272691Y-12789284D01*
X9272691Y-12789284D02*
X9320310Y-12789284D01*
X9320310Y-12789284D02*
X9339358Y-12798808D01*
X9339358Y-12798808D02*
X9348882Y-12808331D01*
X9348882Y-12808331D02*
X9358405Y-12827379D01*
X9358405Y-12827379D02*
X9358405Y-12846427D01*
X9358405Y-12846427D02*
X9348882Y-12874998D01*
X9348882Y-12874998D02*
X9234596Y-12989284D01*
X9234596Y-12989284D02*
X9358405Y-12989284D01*
X9444120Y-12989284D02*
X9444120Y-12855950D01*
X9444120Y-12874998D02*
X9453644Y-12865474D01*
X9453644Y-12865474D02*
X9472691Y-12855950D01*
X9472691Y-12855950D02*
X9501263Y-12855950D01*
X9501263Y-12855950D02*
X9520310Y-12865474D01*
X9520310Y-12865474D02*
X9529834Y-12884522D01*
X9529834Y-12884522D02*
X9529834Y-12989284D01*
X9529834Y-12884522D02*
X9539358Y-12865474D01*
X9539358Y-12865474D02*
X9558405Y-12855950D01*
X9558405Y-12855950D02*
X9586977Y-12855950D01*
X9586977Y-12855950D02*
X9606025Y-12865474D01*
X9606025Y-12865474D02*
X9615548Y-12884522D01*
X9615548Y-12884522D02*
X9615548Y-12989284D01*
X9710786Y-12989284D02*
X9710786Y-12855950D01*
X9710786Y-12874998D02*
X9720310Y-12865474D01*
X9720310Y-12865474D02*
X9739358Y-12855950D01*
X9739358Y-12855950D02*
X9767929Y-12855950D01*
X9767929Y-12855950D02*
X9786977Y-12865474D01*
X9786977Y-12865474D02*
X9796501Y-12884522D01*
X9796501Y-12884522D02*
X9796501Y-12989284D01*
X9796501Y-12884522D02*
X9806025Y-12865474D01*
X9806025Y-12865474D02*
X9825072Y-12855950D01*
X9825072Y-12855950D02*
X9853644Y-12855950D01*
X9853644Y-12855950D02*
X9872691Y-12865474D01*
X9872691Y-12865474D02*
X9882215Y-12884522D01*
X9882215Y-12884522D02*
X9882215Y-12989284D01*
X10272691Y-12779760D02*
X10101263Y-13036903D01*
X10529834Y-12789284D02*
X10548882Y-12789284D01*
X10548882Y-12789284D02*
X10567929Y-12798808D01*
X10567929Y-12798808D02*
X10577453Y-12808331D01*
X10577453Y-12808331D02*
X10586977Y-12827379D01*
X10586977Y-12827379D02*
X10596501Y-12865474D01*
X10596501Y-12865474D02*
X10596501Y-12913093D01*
X10596501Y-12913093D02*
X10586977Y-12951188D01*
X10586977Y-12951188D02*
X10577453Y-12970236D01*
X10577453Y-12970236D02*
X10567929Y-12979760D01*
X10567929Y-12979760D02*
X10548882Y-12989284D01*
X10548882Y-12989284D02*
X10529834Y-12989284D01*
X10529834Y-12989284D02*
X10510787Y-12979760D01*
X10510787Y-12979760D02*
X10501263Y-12970236D01*
X10501263Y-12970236D02*
X10491739Y-12951188D01*
X10491739Y-12951188D02*
X10482215Y-12913093D01*
X10482215Y-12913093D02*
X10482215Y-12865474D01*
X10482215Y-12865474D02*
X10491739Y-12827379D01*
X10491739Y-12827379D02*
X10501263Y-12808331D01*
X10501263Y-12808331D02*
X10510787Y-12798808D01*
X10510787Y-12798808D02*
X10529834Y-12789284D01*
X10682215Y-12970236D02*
X10691739Y-12979760D01*
X10691739Y-12979760D02*
X10682215Y-12989284D01*
X10682215Y-12989284D02*
X10672691Y-12979760D01*
X10672691Y-12979760D02*
X10682215Y-12970236D01*
X10682215Y-12970236D02*
X10682215Y-12989284D01*
X10815548Y-12789284D02*
X10834596Y-12789284D01*
X10834596Y-12789284D02*
X10853644Y-12798808D01*
X10853644Y-12798808D02*
X10863168Y-12808331D01*
X10863168Y-12808331D02*
X10872691Y-12827379D01*
X10872691Y-12827379D02*
X10882215Y-12865474D01*
X10882215Y-12865474D02*
X10882215Y-12913093D01*
X10882215Y-12913093D02*
X10872691Y-12951188D01*
X10872691Y-12951188D02*
X10863168Y-12970236D01*
X10863168Y-12970236D02*
X10853644Y-12979760D01*
X10853644Y-12979760D02*
X10834596Y-12989284D01*
X10834596Y-12989284D02*
X10815548Y-12989284D01*
X10815548Y-12989284D02*
X10796501Y-12979760D01*
X10796501Y-12979760D02*
X10786977Y-12970236D01*
X10786977Y-12970236D02*
X10777453Y-12951188D01*
X10777453Y-12951188D02*
X10767929Y-12913093D01*
X10767929Y-12913093D02*
X10767929Y-12865474D01*
X10767929Y-12865474D02*
X10777453Y-12827379D01*
X10777453Y-12827379D02*
X10786977Y-12808331D01*
X10786977Y-12808331D02*
X10796501Y-12798808D01*
X10796501Y-12798808D02*
X10815548Y-12789284D01*
X10948882Y-12789284D02*
X11072691Y-12789284D01*
X11072691Y-12789284D02*
X11006025Y-12865474D01*
X11006025Y-12865474D02*
X11034596Y-12865474D01*
X11034596Y-12865474D02*
X11053644Y-12874998D01*
X11053644Y-12874998D02*
X11063168Y-12884522D01*
X11063168Y-12884522D02*
X11072691Y-12903569D01*
X11072691Y-12903569D02*
X11072691Y-12951188D01*
X11072691Y-12951188D02*
X11063168Y-12970236D01*
X11063168Y-12970236D02*
X11053644Y-12979760D01*
X11053644Y-12979760D02*
X11034596Y-12989284D01*
X11034596Y-12989284D02*
X10977453Y-12989284D01*
X10977453Y-12989284D02*
X10958406Y-12979760D01*
X10958406Y-12979760D02*
X10948882Y-12970236D01*
X11196501Y-12789284D02*
X11215548Y-12789284D01*
X11215548Y-12789284D02*
X11234596Y-12798808D01*
X11234596Y-12798808D02*
X11244120Y-12808331D01*
X11244120Y-12808331D02*
X11253644Y-12827379D01*
X11253644Y-12827379D02*
X11263167Y-12865474D01*
X11263167Y-12865474D02*
X11263167Y-12913093D01*
X11263167Y-12913093D02*
X11253644Y-12951188D01*
X11253644Y-12951188D02*
X11244120Y-12970236D01*
X11244120Y-12970236D02*
X11234596Y-12979760D01*
X11234596Y-12979760D02*
X11215548Y-12989284D01*
X11215548Y-12989284D02*
X11196501Y-12989284D01*
X11196501Y-12989284D02*
X11177453Y-12979760D01*
X11177453Y-12979760D02*
X11167929Y-12970236D01*
X11167929Y-12970236D02*
X11158406Y-12951188D01*
X11158406Y-12951188D02*
X11148882Y-12913093D01*
X11148882Y-12913093D02*
X11148882Y-12865474D01*
X11148882Y-12865474D02*
X11158406Y-12827379D01*
X11158406Y-12827379D02*
X11167929Y-12808331D01*
X11167929Y-12808331D02*
X11177453Y-12798808D01*
X11177453Y-12798808D02*
X11196501Y-12789284D01*
X11386977Y-12789284D02*
X11406025Y-12789284D01*
X11406025Y-12789284D02*
X11425072Y-12798808D01*
X11425072Y-12798808D02*
X11434596Y-12808331D01*
X11434596Y-12808331D02*
X11444120Y-12827379D01*
X11444120Y-12827379D02*
X11453644Y-12865474D01*
X11453644Y-12865474D02*
X11453644Y-12913093D01*
X11453644Y-12913093D02*
X11444120Y-12951188D01*
X11444120Y-12951188D02*
X11434596Y-12970236D01*
X11434596Y-12970236D02*
X11425072Y-12979760D01*
X11425072Y-12979760D02*
X11406025Y-12989284D01*
X11406025Y-12989284D02*
X11386977Y-12989284D01*
X11386977Y-12989284D02*
X11367929Y-12979760D01*
X11367929Y-12979760D02*
X11358406Y-12970236D01*
X11358406Y-12970236D02*
X11348882Y-12951188D01*
X11348882Y-12951188D02*
X11339358Y-12913093D01*
X11339358Y-12913093D02*
X11339358Y-12865474D01*
X11339358Y-12865474D02*
X11348882Y-12827379D01*
X11348882Y-12827379D02*
X11358406Y-12808331D01*
X11358406Y-12808331D02*
X11367929Y-12798808D01*
X11367929Y-12798808D02*
X11386977Y-12789284D01*
X11529834Y-12789284D02*
X11529834Y-12827379D01*
X11606025Y-12789284D02*
X11606025Y-12827379D01*
X11901263Y-13065474D02*
X11891739Y-13055950D01*
X11891739Y-13055950D02*
X11872691Y-13027379D01*
X11872691Y-13027379D02*
X11863168Y-13008331D01*
X11863168Y-13008331D02*
X11853644Y-12979760D01*
X11853644Y-12979760D02*
X11844120Y-12932141D01*
X11844120Y-12932141D02*
X11844120Y-12894046D01*
X11844120Y-12894046D02*
X11853644Y-12846427D01*
X11853644Y-12846427D02*
X11863168Y-12817855D01*
X11863168Y-12817855D02*
X11872691Y-12798808D01*
X11872691Y-12798808D02*
X11891739Y-12770236D01*
X11891739Y-12770236D02*
X11901263Y-12760712D01*
X11958406Y-12789284D02*
X12082215Y-12789284D01*
X12082215Y-12789284D02*
X12015548Y-12865474D01*
X12015548Y-12865474D02*
X12044120Y-12865474D01*
X12044120Y-12865474D02*
X12063168Y-12874998D01*
X12063168Y-12874998D02*
X12072691Y-12884522D01*
X12072691Y-12884522D02*
X12082215Y-12903569D01*
X12082215Y-12903569D02*
X12082215Y-12951188D01*
X12082215Y-12951188D02*
X12072691Y-12970236D01*
X12072691Y-12970236D02*
X12063168Y-12979760D01*
X12063168Y-12979760D02*
X12044120Y-12989284D01*
X12044120Y-12989284D02*
X11986977Y-12989284D01*
X11986977Y-12989284D02*
X11967929Y-12979760D01*
X11967929Y-12979760D02*
X11958406Y-12970236D01*
X12206025Y-12789284D02*
X12225072Y-12789284D01*
X12225072Y-12789284D02*
X12244120Y-12798808D01*
X12244120Y-12798808D02*
X12253644Y-12808331D01*
X12253644Y-12808331D02*
X12263168Y-12827379D01*
X12263168Y-12827379D02*
X12272691Y-12865474D01*
X12272691Y-12865474D02*
X12272691Y-12913093D01*
X12272691Y-12913093D02*
X12263168Y-12951188D01*
X12263168Y-12951188D02*
X12253644Y-12970236D01*
X12253644Y-12970236D02*
X12244120Y-12979760D01*
X12244120Y-12979760D02*
X12225072Y-12989284D01*
X12225072Y-12989284D02*
X12206025Y-12989284D01*
X12206025Y-12989284D02*
X12186977Y-12979760D01*
X12186977Y-12979760D02*
X12177453Y-12970236D01*
X12177453Y-12970236D02*
X12167929Y-12951188D01*
X12167929Y-12951188D02*
X12158406Y-12913093D01*
X12158406Y-12913093D02*
X12158406Y-12865474D01*
X12158406Y-12865474D02*
X12167929Y-12827379D01*
X12167929Y-12827379D02*
X12177453Y-12808331D01*
X12177453Y-12808331D02*
X12186977Y-12798808D01*
X12186977Y-12798808D02*
X12206025Y-12789284D01*
X12510787Y-12989284D02*
X12510787Y-12789284D01*
X12596501Y-12989284D02*
X12596501Y-12884522D01*
X12596501Y-12884522D02*
X12586977Y-12865474D01*
X12586977Y-12865474D02*
X12567930Y-12855950D01*
X12567930Y-12855950D02*
X12539358Y-12855950D01*
X12539358Y-12855950D02*
X12520310Y-12865474D01*
X12520310Y-12865474D02*
X12510787Y-12874998D01*
X12720310Y-12989284D02*
X12701263Y-12979760D01*
X12701263Y-12979760D02*
X12691739Y-12970236D01*
X12691739Y-12970236D02*
X12682215Y-12951188D01*
X12682215Y-12951188D02*
X12682215Y-12894046D01*
X12682215Y-12894046D02*
X12691739Y-12874998D01*
X12691739Y-12874998D02*
X12701263Y-12865474D01*
X12701263Y-12865474D02*
X12720310Y-12855950D01*
X12720310Y-12855950D02*
X12748882Y-12855950D01*
X12748882Y-12855950D02*
X12767930Y-12865474D01*
X12767930Y-12865474D02*
X12777453Y-12874998D01*
X12777453Y-12874998D02*
X12786977Y-12894046D01*
X12786977Y-12894046D02*
X12786977Y-12951188D01*
X12786977Y-12951188D02*
X12777453Y-12970236D01*
X12777453Y-12970236D02*
X12767930Y-12979760D01*
X12767930Y-12979760D02*
X12748882Y-12989284D01*
X12748882Y-12989284D02*
X12720310Y-12989284D01*
X12901263Y-12989284D02*
X12882215Y-12979760D01*
X12882215Y-12979760D02*
X12872691Y-12960712D01*
X12872691Y-12960712D02*
X12872691Y-12789284D01*
X13053644Y-12979760D02*
X13034596Y-12989284D01*
X13034596Y-12989284D02*
X12996501Y-12989284D01*
X12996501Y-12989284D02*
X12977453Y-12979760D01*
X12977453Y-12979760D02*
X12967930Y-12960712D01*
X12967930Y-12960712D02*
X12967930Y-12884522D01*
X12967930Y-12884522D02*
X12977453Y-12865474D01*
X12977453Y-12865474D02*
X12996501Y-12855950D01*
X12996501Y-12855950D02*
X13034596Y-12855950D01*
X13034596Y-12855950D02*
X13053644Y-12865474D01*
X13053644Y-12865474D02*
X13063168Y-12884522D01*
X13063168Y-12884522D02*
X13063168Y-12903569D01*
X13063168Y-12903569D02*
X12967930Y-12922617D01*
X13139358Y-12979760D02*
X13158406Y-12989284D01*
X13158406Y-12989284D02*
X13196501Y-12989284D01*
X13196501Y-12989284D02*
X13215549Y-12979760D01*
X13215549Y-12979760D02*
X13225072Y-12960712D01*
X13225072Y-12960712D02*
X13225072Y-12951188D01*
X13225072Y-12951188D02*
X13215549Y-12932141D01*
X13215549Y-12932141D02*
X13196501Y-12922617D01*
X13196501Y-12922617D02*
X13167930Y-12922617D01*
X13167930Y-12922617D02*
X13148882Y-12913093D01*
X13148882Y-12913093D02*
X13139358Y-12894046D01*
X13139358Y-12894046D02*
X13139358Y-12884522D01*
X13139358Y-12884522D02*
X13148882Y-12865474D01*
X13148882Y-12865474D02*
X13167930Y-12855950D01*
X13167930Y-12855950D02*
X13196501Y-12855950D01*
X13196501Y-12855950D02*
X13215549Y-12865474D01*
X13291739Y-13065474D02*
X13301263Y-13055950D01*
X13301263Y-13055950D02*
X13320311Y-13027379D01*
X13320311Y-13027379D02*
X13329834Y-13008331D01*
X13329834Y-13008331D02*
X13339358Y-12979760D01*
X13339358Y-12979760D02*
X13348882Y-12932141D01*
X13348882Y-12932141D02*
X13348882Y-12894046D01*
X13348882Y-12894046D02*
X13339358Y-12846427D01*
X13339358Y-12846427D02*
X13329834Y-12817855D01*
X13329834Y-12817855D02*
X13320311Y-12798808D01*
X13320311Y-12798808D02*
X13301263Y-12770236D01*
X13301263Y-12770236D02*
X13291739Y-12760712D01*
D12*
X8275700Y-13111300D02*
X8275700Y-13212300D01*
X8225200Y-13161800D02*
X8326200Y-13161800D01*
D11*
X8691739Y-13253284D02*
X8577453Y-13253284D01*
X8634596Y-13253284D02*
X8634596Y-13053284D01*
X8634596Y-13053284D02*
X8615548Y-13081855D01*
X8615548Y-13081855D02*
X8596501Y-13100903D01*
X8596501Y-13100903D02*
X8577453Y-13110427D01*
X8777453Y-13234236D02*
X8786977Y-13243760D01*
X8786977Y-13243760D02*
X8777453Y-13253284D01*
X8777453Y-13253284D02*
X8767929Y-13243760D01*
X8767929Y-13243760D02*
X8777453Y-13234236D01*
X8777453Y-13234236D02*
X8777453Y-13253284D01*
X8910786Y-13053284D02*
X8929834Y-13053284D01*
X8929834Y-13053284D02*
X8948882Y-13062808D01*
X8948882Y-13062808D02*
X8958405Y-13072331D01*
X8958405Y-13072331D02*
X8967929Y-13091379D01*
X8967929Y-13091379D02*
X8977453Y-13129474D01*
X8977453Y-13129474D02*
X8977453Y-13177093D01*
X8977453Y-13177093D02*
X8967929Y-13215188D01*
X8967929Y-13215188D02*
X8958405Y-13234236D01*
X8958405Y-13234236D02*
X8948882Y-13243760D01*
X8948882Y-13243760D02*
X8929834Y-13253284D01*
X8929834Y-13253284D02*
X8910786Y-13253284D01*
X8910786Y-13253284D02*
X8891739Y-13243760D01*
X8891739Y-13243760D02*
X8882215Y-13234236D01*
X8882215Y-13234236D02*
X8872691Y-13215188D01*
X8872691Y-13215188D02*
X8863167Y-13177093D01*
X8863167Y-13177093D02*
X8863167Y-13129474D01*
X8863167Y-13129474D02*
X8872691Y-13091379D01*
X8872691Y-13091379D02*
X8882215Y-13072331D01*
X8882215Y-13072331D02*
X8891739Y-13062808D01*
X8891739Y-13062808D02*
X8910786Y-13053284D01*
X9167929Y-13253284D02*
X9053644Y-13253284D01*
X9110786Y-13253284D02*
X9110786Y-13053284D01*
X9110786Y-13053284D02*
X9091739Y-13081855D01*
X9091739Y-13081855D02*
X9072691Y-13100903D01*
X9072691Y-13100903D02*
X9053644Y-13110427D01*
X9291739Y-13053284D02*
X9310786Y-13053284D01*
X9310786Y-13053284D02*
X9329834Y-13062808D01*
X9329834Y-13062808D02*
X9339358Y-13072331D01*
X9339358Y-13072331D02*
X9348882Y-13091379D01*
X9348882Y-13091379D02*
X9358405Y-13129474D01*
X9358405Y-13129474D02*
X9358405Y-13177093D01*
X9358405Y-13177093D02*
X9348882Y-13215188D01*
X9348882Y-13215188D02*
X9339358Y-13234236D01*
X9339358Y-13234236D02*
X9329834Y-13243760D01*
X9329834Y-13243760D02*
X9310786Y-13253284D01*
X9310786Y-13253284D02*
X9291739Y-13253284D01*
X9291739Y-13253284D02*
X9272691Y-13243760D01*
X9272691Y-13243760D02*
X9263167Y-13234236D01*
X9263167Y-13234236D02*
X9253644Y-13215188D01*
X9253644Y-13215188D02*
X9244120Y-13177093D01*
X9244120Y-13177093D02*
X9244120Y-13129474D01*
X9244120Y-13129474D02*
X9253644Y-13091379D01*
X9253644Y-13091379D02*
X9263167Y-13072331D01*
X9263167Y-13072331D02*
X9272691Y-13062808D01*
X9272691Y-13062808D02*
X9291739Y-13053284D01*
X9444120Y-13253284D02*
X9444120Y-13119950D01*
X9444120Y-13138998D02*
X9453644Y-13129474D01*
X9453644Y-13129474D02*
X9472691Y-13119950D01*
X9472691Y-13119950D02*
X9501263Y-13119950D01*
X9501263Y-13119950D02*
X9520310Y-13129474D01*
X9520310Y-13129474D02*
X9529834Y-13148522D01*
X9529834Y-13148522D02*
X9529834Y-13253284D01*
X9529834Y-13148522D02*
X9539358Y-13129474D01*
X9539358Y-13129474D02*
X9558405Y-13119950D01*
X9558405Y-13119950D02*
X9586977Y-13119950D01*
X9586977Y-13119950D02*
X9606025Y-13129474D01*
X9606025Y-13129474D02*
X9615548Y-13148522D01*
X9615548Y-13148522D02*
X9615548Y-13253284D01*
X9710786Y-13253284D02*
X9710786Y-13119950D01*
X9710786Y-13138998D02*
X9720310Y-13129474D01*
X9720310Y-13129474D02*
X9739358Y-13119950D01*
X9739358Y-13119950D02*
X9767929Y-13119950D01*
X9767929Y-13119950D02*
X9786977Y-13129474D01*
X9786977Y-13129474D02*
X9796501Y-13148522D01*
X9796501Y-13148522D02*
X9796501Y-13253284D01*
X9796501Y-13148522D02*
X9806025Y-13129474D01*
X9806025Y-13129474D02*
X9825072Y-13119950D01*
X9825072Y-13119950D02*
X9853644Y-13119950D01*
X9853644Y-13119950D02*
X9872691Y-13129474D01*
X9872691Y-13129474D02*
X9882215Y-13148522D01*
X9882215Y-13148522D02*
X9882215Y-13253284D01*
X10272691Y-13043760D02*
X10101263Y-13300903D01*
X10529834Y-13053284D02*
X10548882Y-13053284D01*
X10548882Y-13053284D02*
X10567929Y-13062808D01*
X10567929Y-13062808D02*
X10577453Y-13072331D01*
X10577453Y-13072331D02*
X10586977Y-13091379D01*
X10586977Y-13091379D02*
X10596501Y-13129474D01*
X10596501Y-13129474D02*
X10596501Y-13177093D01*
X10596501Y-13177093D02*
X10586977Y-13215188D01*
X10586977Y-13215188D02*
X10577453Y-13234236D01*
X10577453Y-13234236D02*
X10567929Y-13243760D01*
X10567929Y-13243760D02*
X10548882Y-13253284D01*
X10548882Y-13253284D02*
X10529834Y-13253284D01*
X10529834Y-13253284D02*
X10510787Y-13243760D01*
X10510787Y-13243760D02*
X10501263Y-13234236D01*
X10501263Y-13234236D02*
X10491739Y-13215188D01*
X10491739Y-13215188D02*
X10482215Y-13177093D01*
X10482215Y-13177093D02*
X10482215Y-13129474D01*
X10482215Y-13129474D02*
X10491739Y-13091379D01*
X10491739Y-13091379D02*
X10501263Y-13072331D01*
X10501263Y-13072331D02*
X10510787Y-13062808D01*
X10510787Y-13062808D02*
X10529834Y-13053284D01*
X10682215Y-13234236D02*
X10691739Y-13243760D01*
X10691739Y-13243760D02*
X10682215Y-13253284D01*
X10682215Y-13253284D02*
X10672691Y-13243760D01*
X10672691Y-13243760D02*
X10682215Y-13234236D01*
X10682215Y-13234236D02*
X10682215Y-13253284D01*
X10815548Y-13053284D02*
X10834596Y-13053284D01*
X10834596Y-13053284D02*
X10853644Y-13062808D01*
X10853644Y-13062808D02*
X10863168Y-13072331D01*
X10863168Y-13072331D02*
X10872691Y-13091379D01*
X10872691Y-13091379D02*
X10882215Y-13129474D01*
X10882215Y-13129474D02*
X10882215Y-13177093D01*
X10882215Y-13177093D02*
X10872691Y-13215188D01*
X10872691Y-13215188D02*
X10863168Y-13234236D01*
X10863168Y-13234236D02*
X10853644Y-13243760D01*
X10853644Y-13243760D02*
X10834596Y-13253284D01*
X10834596Y-13253284D02*
X10815548Y-13253284D01*
X10815548Y-13253284D02*
X10796501Y-13243760D01*
X10796501Y-13243760D02*
X10786977Y-13234236D01*
X10786977Y-13234236D02*
X10777453Y-13215188D01*
X10777453Y-13215188D02*
X10767929Y-13177093D01*
X10767929Y-13177093D02*
X10767929Y-13129474D01*
X10767929Y-13129474D02*
X10777453Y-13091379D01*
X10777453Y-13091379D02*
X10786977Y-13072331D01*
X10786977Y-13072331D02*
X10796501Y-13062808D01*
X10796501Y-13062808D02*
X10815548Y-13053284D01*
X10948882Y-13053284D02*
X11072691Y-13053284D01*
X11072691Y-13053284D02*
X11006025Y-13129474D01*
X11006025Y-13129474D02*
X11034596Y-13129474D01*
X11034596Y-13129474D02*
X11053644Y-13138998D01*
X11053644Y-13138998D02*
X11063168Y-13148522D01*
X11063168Y-13148522D02*
X11072691Y-13167569D01*
X11072691Y-13167569D02*
X11072691Y-13215188D01*
X11072691Y-13215188D02*
X11063168Y-13234236D01*
X11063168Y-13234236D02*
X11053644Y-13243760D01*
X11053644Y-13243760D02*
X11034596Y-13253284D01*
X11034596Y-13253284D02*
X10977453Y-13253284D01*
X10977453Y-13253284D02*
X10958406Y-13243760D01*
X10958406Y-13243760D02*
X10948882Y-13234236D01*
X11167929Y-13253284D02*
X11206025Y-13253284D01*
X11206025Y-13253284D02*
X11225072Y-13243760D01*
X11225072Y-13243760D02*
X11234596Y-13234236D01*
X11234596Y-13234236D02*
X11253644Y-13205665D01*
X11253644Y-13205665D02*
X11263167Y-13167569D01*
X11263167Y-13167569D02*
X11263167Y-13091379D01*
X11263167Y-13091379D02*
X11253644Y-13072331D01*
X11253644Y-13072331D02*
X11244120Y-13062808D01*
X11244120Y-13062808D02*
X11225072Y-13053284D01*
X11225072Y-13053284D02*
X11186977Y-13053284D01*
X11186977Y-13053284D02*
X11167929Y-13062808D01*
X11167929Y-13062808D02*
X11158406Y-13072331D01*
X11158406Y-13072331D02*
X11148882Y-13091379D01*
X11148882Y-13091379D02*
X11148882Y-13138998D01*
X11148882Y-13138998D02*
X11158406Y-13158046D01*
X11158406Y-13158046D02*
X11167929Y-13167569D01*
X11167929Y-13167569D02*
X11186977Y-13177093D01*
X11186977Y-13177093D02*
X11225072Y-13177093D01*
X11225072Y-13177093D02*
X11244120Y-13167569D01*
X11244120Y-13167569D02*
X11253644Y-13158046D01*
X11253644Y-13158046D02*
X11263167Y-13138998D01*
X11377453Y-13138998D02*
X11358406Y-13129474D01*
X11358406Y-13129474D02*
X11348882Y-13119950D01*
X11348882Y-13119950D02*
X11339358Y-13100903D01*
X11339358Y-13100903D02*
X11339358Y-13091379D01*
X11339358Y-13091379D02*
X11348882Y-13072331D01*
X11348882Y-13072331D02*
X11358406Y-13062808D01*
X11358406Y-13062808D02*
X11377453Y-13053284D01*
X11377453Y-13053284D02*
X11415548Y-13053284D01*
X11415548Y-13053284D02*
X11434596Y-13062808D01*
X11434596Y-13062808D02*
X11444120Y-13072331D01*
X11444120Y-13072331D02*
X11453644Y-13091379D01*
X11453644Y-13091379D02*
X11453644Y-13100903D01*
X11453644Y-13100903D02*
X11444120Y-13119950D01*
X11444120Y-13119950D02*
X11434596Y-13129474D01*
X11434596Y-13129474D02*
X11415548Y-13138998D01*
X11415548Y-13138998D02*
X11377453Y-13138998D01*
X11377453Y-13138998D02*
X11358406Y-13148522D01*
X11358406Y-13148522D02*
X11348882Y-13158046D01*
X11348882Y-13158046D02*
X11339358Y-13177093D01*
X11339358Y-13177093D02*
X11339358Y-13215188D01*
X11339358Y-13215188D02*
X11348882Y-13234236D01*
X11348882Y-13234236D02*
X11358406Y-13243760D01*
X11358406Y-13243760D02*
X11377453Y-13253284D01*
X11377453Y-13253284D02*
X11415548Y-13253284D01*
X11415548Y-13253284D02*
X11434596Y-13243760D01*
X11434596Y-13243760D02*
X11444120Y-13234236D01*
X11444120Y-13234236D02*
X11453644Y-13215188D01*
X11453644Y-13215188D02*
X11453644Y-13177093D01*
X11453644Y-13177093D02*
X11444120Y-13158046D01*
X11444120Y-13158046D02*
X11434596Y-13148522D01*
X11434596Y-13148522D02*
X11415548Y-13138998D01*
X11529834Y-13053284D02*
X11529834Y-13091379D01*
X11606025Y-13053284D02*
X11606025Y-13091379D01*
X11901263Y-13329474D02*
X11891739Y-13319950D01*
X11891739Y-13319950D02*
X11872691Y-13291379D01*
X11872691Y-13291379D02*
X11863168Y-13272331D01*
X11863168Y-13272331D02*
X11853644Y-13243760D01*
X11853644Y-13243760D02*
X11844120Y-13196141D01*
X11844120Y-13196141D02*
X11844120Y-13158046D01*
X11844120Y-13158046D02*
X11853644Y-13110427D01*
X11853644Y-13110427D02*
X11863168Y-13081855D01*
X11863168Y-13081855D02*
X11872691Y-13062808D01*
X11872691Y-13062808D02*
X11891739Y-13034236D01*
X11891739Y-13034236D02*
X11901263Y-13024712D01*
X11967929Y-13072331D02*
X11977453Y-13062808D01*
X11977453Y-13062808D02*
X11996501Y-13053284D01*
X11996501Y-13053284D02*
X12044120Y-13053284D01*
X12044120Y-13053284D02*
X12063168Y-13062808D01*
X12063168Y-13062808D02*
X12072691Y-13072331D01*
X12072691Y-13072331D02*
X12082215Y-13091379D01*
X12082215Y-13091379D02*
X12082215Y-13110427D01*
X12082215Y-13110427D02*
X12072691Y-13138998D01*
X12072691Y-13138998D02*
X11958406Y-13253284D01*
X11958406Y-13253284D02*
X12082215Y-13253284D01*
X12320310Y-13253284D02*
X12320310Y-13053284D01*
X12406025Y-13253284D02*
X12406025Y-13148522D01*
X12406025Y-13148522D02*
X12396501Y-13129474D01*
X12396501Y-13129474D02*
X12377453Y-13119950D01*
X12377453Y-13119950D02*
X12348882Y-13119950D01*
X12348882Y-13119950D02*
X12329834Y-13129474D01*
X12329834Y-13129474D02*
X12320310Y-13138998D01*
X12529834Y-13253284D02*
X12510787Y-13243760D01*
X12510787Y-13243760D02*
X12501263Y-13234236D01*
X12501263Y-13234236D02*
X12491739Y-13215188D01*
X12491739Y-13215188D02*
X12491739Y-13158046D01*
X12491739Y-13158046D02*
X12501263Y-13138998D01*
X12501263Y-13138998D02*
X12510787Y-13129474D01*
X12510787Y-13129474D02*
X12529834Y-13119950D01*
X12529834Y-13119950D02*
X12558406Y-13119950D01*
X12558406Y-13119950D02*
X12577453Y-13129474D01*
X12577453Y-13129474D02*
X12586977Y-13138998D01*
X12586977Y-13138998D02*
X12596501Y-13158046D01*
X12596501Y-13158046D02*
X12596501Y-13215188D01*
X12596501Y-13215188D02*
X12586977Y-13234236D01*
X12586977Y-13234236D02*
X12577453Y-13243760D01*
X12577453Y-13243760D02*
X12558406Y-13253284D01*
X12558406Y-13253284D02*
X12529834Y-13253284D01*
X12710787Y-13253284D02*
X12691739Y-13243760D01*
X12691739Y-13243760D02*
X12682215Y-13224712D01*
X12682215Y-13224712D02*
X12682215Y-13053284D01*
X12863168Y-13243760D02*
X12844120Y-13253284D01*
X12844120Y-13253284D02*
X12806025Y-13253284D01*
X12806025Y-13253284D02*
X12786977Y-13243760D01*
X12786977Y-13243760D02*
X12777453Y-13224712D01*
X12777453Y-13224712D02*
X12777453Y-13148522D01*
X12777453Y-13148522D02*
X12786977Y-13129474D01*
X12786977Y-13129474D02*
X12806025Y-13119950D01*
X12806025Y-13119950D02*
X12844120Y-13119950D01*
X12844120Y-13119950D02*
X12863168Y-13129474D01*
X12863168Y-13129474D02*
X12872691Y-13148522D01*
X12872691Y-13148522D02*
X12872691Y-13167569D01*
X12872691Y-13167569D02*
X12777453Y-13186617D01*
X12948882Y-13243760D02*
X12967930Y-13253284D01*
X12967930Y-13253284D02*
X13006025Y-13253284D01*
X13006025Y-13253284D02*
X13025072Y-13243760D01*
X13025072Y-13243760D02*
X13034596Y-13224712D01*
X13034596Y-13224712D02*
X13034596Y-13215188D01*
X13034596Y-13215188D02*
X13025072Y-13196141D01*
X13025072Y-13196141D02*
X13006025Y-13186617D01*
X13006025Y-13186617D02*
X12977453Y-13186617D01*
X12977453Y-13186617D02*
X12958406Y-13177093D01*
X12958406Y-13177093D02*
X12948882Y-13158046D01*
X12948882Y-13158046D02*
X12948882Y-13148522D01*
X12948882Y-13148522D02*
X12958406Y-13129474D01*
X12958406Y-13129474D02*
X12977453Y-13119950D01*
X12977453Y-13119950D02*
X13006025Y-13119950D01*
X13006025Y-13119950D02*
X13025072Y-13129474D01*
X13101263Y-13329474D02*
X13110787Y-13319950D01*
X13110787Y-13319950D02*
X13129834Y-13291379D01*
X13129834Y-13291379D02*
X13139358Y-13272331D01*
X13139358Y-13272331D02*
X13148882Y-13243760D01*
X13148882Y-13243760D02*
X13158406Y-13196141D01*
X13158406Y-13196141D02*
X13158406Y-13158046D01*
X13158406Y-13158046D02*
X13148882Y-13110427D01*
X13148882Y-13110427D02*
X13139358Y-13081855D01*
X13139358Y-13081855D02*
X13129834Y-13062808D01*
X13129834Y-13062808D02*
X13110787Y-13034236D01*
X13110787Y-13034236D02*
X13101263Y-13024712D01*
D13*
X8308627Y-13468227D02*
X8308627Y-13383373D01*
X8223773Y-13383373D01*
X8223773Y-13468227D01*
X8308627Y-13468227D01*
D11*
X8691739Y-13517284D02*
X8577453Y-13517284D01*
X8634596Y-13517284D02*
X8634596Y-13317284D01*
X8634596Y-13317284D02*
X8615548Y-13345855D01*
X8615548Y-13345855D02*
X8596501Y-13364903D01*
X8596501Y-13364903D02*
X8577453Y-13374427D01*
X8777453Y-13498236D02*
X8786977Y-13507760D01*
X8786977Y-13507760D02*
X8777453Y-13517284D01*
X8777453Y-13517284D02*
X8767929Y-13507760D01*
X8767929Y-13507760D02*
X8777453Y-13498236D01*
X8777453Y-13498236D02*
X8777453Y-13517284D01*
X8863167Y-13336331D02*
X8872691Y-13326808D01*
X8872691Y-13326808D02*
X8891739Y-13317284D01*
X8891739Y-13317284D02*
X8939358Y-13317284D01*
X8939358Y-13317284D02*
X8958405Y-13326808D01*
X8958405Y-13326808D02*
X8967929Y-13336331D01*
X8967929Y-13336331D02*
X8977453Y-13355379D01*
X8977453Y-13355379D02*
X8977453Y-13374427D01*
X8977453Y-13374427D02*
X8967929Y-13402998D01*
X8967929Y-13402998D02*
X8853644Y-13517284D01*
X8853644Y-13517284D02*
X8977453Y-13517284D01*
X9101263Y-13317284D02*
X9120310Y-13317284D01*
X9120310Y-13317284D02*
X9139358Y-13326808D01*
X9139358Y-13326808D02*
X9148882Y-13336331D01*
X9148882Y-13336331D02*
X9158405Y-13355379D01*
X9158405Y-13355379D02*
X9167929Y-13393474D01*
X9167929Y-13393474D02*
X9167929Y-13441093D01*
X9167929Y-13441093D02*
X9158405Y-13479188D01*
X9158405Y-13479188D02*
X9148882Y-13498236D01*
X9148882Y-13498236D02*
X9139358Y-13507760D01*
X9139358Y-13507760D02*
X9120310Y-13517284D01*
X9120310Y-13517284D02*
X9101263Y-13517284D01*
X9101263Y-13517284D02*
X9082215Y-13507760D01*
X9082215Y-13507760D02*
X9072691Y-13498236D01*
X9072691Y-13498236D02*
X9063167Y-13479188D01*
X9063167Y-13479188D02*
X9053644Y-13441093D01*
X9053644Y-13441093D02*
X9053644Y-13393474D01*
X9053644Y-13393474D02*
X9063167Y-13355379D01*
X9063167Y-13355379D02*
X9072691Y-13336331D01*
X9072691Y-13336331D02*
X9082215Y-13326808D01*
X9082215Y-13326808D02*
X9101263Y-13317284D01*
X9291739Y-13317284D02*
X9310786Y-13317284D01*
X9310786Y-13317284D02*
X9329834Y-13326808D01*
X9329834Y-13326808D02*
X9339358Y-13336331D01*
X9339358Y-13336331D02*
X9348882Y-13355379D01*
X9348882Y-13355379D02*
X9358405Y-13393474D01*
X9358405Y-13393474D02*
X9358405Y-13441093D01*
X9358405Y-13441093D02*
X9348882Y-13479188D01*
X9348882Y-13479188D02*
X9339358Y-13498236D01*
X9339358Y-13498236D02*
X9329834Y-13507760D01*
X9329834Y-13507760D02*
X9310786Y-13517284D01*
X9310786Y-13517284D02*
X9291739Y-13517284D01*
X9291739Y-13517284D02*
X9272691Y-13507760D01*
X9272691Y-13507760D02*
X9263167Y-13498236D01*
X9263167Y-13498236D02*
X9253644Y-13479188D01*
X9253644Y-13479188D02*
X9244120Y-13441093D01*
X9244120Y-13441093D02*
X9244120Y-13393474D01*
X9244120Y-13393474D02*
X9253644Y-13355379D01*
X9253644Y-13355379D02*
X9263167Y-13336331D01*
X9263167Y-13336331D02*
X9272691Y-13326808D01*
X9272691Y-13326808D02*
X9291739Y-13317284D01*
X9444120Y-13517284D02*
X9444120Y-13383950D01*
X9444120Y-13402998D02*
X9453644Y-13393474D01*
X9453644Y-13393474D02*
X9472691Y-13383950D01*
X9472691Y-13383950D02*
X9501263Y-13383950D01*
X9501263Y-13383950D02*
X9520310Y-13393474D01*
X9520310Y-13393474D02*
X9529834Y-13412522D01*
X9529834Y-13412522D02*
X9529834Y-13517284D01*
X9529834Y-13412522D02*
X9539358Y-13393474D01*
X9539358Y-13393474D02*
X9558405Y-13383950D01*
X9558405Y-13383950D02*
X9586977Y-13383950D01*
X9586977Y-13383950D02*
X9606025Y-13393474D01*
X9606025Y-13393474D02*
X9615548Y-13412522D01*
X9615548Y-13412522D02*
X9615548Y-13517284D01*
X9710786Y-13517284D02*
X9710786Y-13383950D01*
X9710786Y-13402998D02*
X9720310Y-13393474D01*
X9720310Y-13393474D02*
X9739358Y-13383950D01*
X9739358Y-13383950D02*
X9767929Y-13383950D01*
X9767929Y-13383950D02*
X9786977Y-13393474D01*
X9786977Y-13393474D02*
X9796501Y-13412522D01*
X9796501Y-13412522D02*
X9796501Y-13517284D01*
X9796501Y-13412522D02*
X9806025Y-13393474D01*
X9806025Y-13393474D02*
X9825072Y-13383950D01*
X9825072Y-13383950D02*
X9853644Y-13383950D01*
X9853644Y-13383950D02*
X9872691Y-13393474D01*
X9872691Y-13393474D02*
X9882215Y-13412522D01*
X9882215Y-13412522D02*
X9882215Y-13517284D01*
X10272691Y-13307760D02*
X10101263Y-13564903D01*
X10529834Y-13317284D02*
X10548882Y-13317284D01*
X10548882Y-13317284D02*
X10567929Y-13326808D01*
X10567929Y-13326808D02*
X10577453Y-13336331D01*
X10577453Y-13336331D02*
X10586977Y-13355379D01*
X10586977Y-13355379D02*
X10596501Y-13393474D01*
X10596501Y-13393474D02*
X10596501Y-13441093D01*
X10596501Y-13441093D02*
X10586977Y-13479188D01*
X10586977Y-13479188D02*
X10577453Y-13498236D01*
X10577453Y-13498236D02*
X10567929Y-13507760D01*
X10567929Y-13507760D02*
X10548882Y-13517284D01*
X10548882Y-13517284D02*
X10529834Y-13517284D01*
X10529834Y-13517284D02*
X10510787Y-13507760D01*
X10510787Y-13507760D02*
X10501263Y-13498236D01*
X10501263Y-13498236D02*
X10491739Y-13479188D01*
X10491739Y-13479188D02*
X10482215Y-13441093D01*
X10482215Y-13441093D02*
X10482215Y-13393474D01*
X10482215Y-13393474D02*
X10491739Y-13355379D01*
X10491739Y-13355379D02*
X10501263Y-13336331D01*
X10501263Y-13336331D02*
X10510787Y-13326808D01*
X10510787Y-13326808D02*
X10529834Y-13317284D01*
X10682215Y-13498236D02*
X10691739Y-13507760D01*
X10691739Y-13507760D02*
X10682215Y-13517284D01*
X10682215Y-13517284D02*
X10672691Y-13507760D01*
X10672691Y-13507760D02*
X10682215Y-13498236D01*
X10682215Y-13498236D02*
X10682215Y-13517284D01*
X10815548Y-13317284D02*
X10834596Y-13317284D01*
X10834596Y-13317284D02*
X10853644Y-13326808D01*
X10853644Y-13326808D02*
X10863168Y-13336331D01*
X10863168Y-13336331D02*
X10872691Y-13355379D01*
X10872691Y-13355379D02*
X10882215Y-13393474D01*
X10882215Y-13393474D02*
X10882215Y-13441093D01*
X10882215Y-13441093D02*
X10872691Y-13479188D01*
X10872691Y-13479188D02*
X10863168Y-13498236D01*
X10863168Y-13498236D02*
X10853644Y-13507760D01*
X10853644Y-13507760D02*
X10834596Y-13517284D01*
X10834596Y-13517284D02*
X10815548Y-13517284D01*
X10815548Y-13517284D02*
X10796501Y-13507760D01*
X10796501Y-13507760D02*
X10786977Y-13498236D01*
X10786977Y-13498236D02*
X10777453Y-13479188D01*
X10777453Y-13479188D02*
X10767929Y-13441093D01*
X10767929Y-13441093D02*
X10767929Y-13393474D01*
X10767929Y-13393474D02*
X10777453Y-13355379D01*
X10777453Y-13355379D02*
X10786977Y-13336331D01*
X10786977Y-13336331D02*
X10796501Y-13326808D01*
X10796501Y-13326808D02*
X10815548Y-13317284D01*
X11053644Y-13383950D02*
X11053644Y-13517284D01*
X11006025Y-13307760D02*
X10958406Y-13450617D01*
X10958406Y-13450617D02*
X11082215Y-13450617D01*
X11139358Y-13317284D02*
X11272691Y-13317284D01*
X11272691Y-13317284D02*
X11186977Y-13517284D01*
X11339358Y-13336331D02*
X11348882Y-13326808D01*
X11348882Y-13326808D02*
X11367929Y-13317284D01*
X11367929Y-13317284D02*
X11415548Y-13317284D01*
X11415548Y-13317284D02*
X11434596Y-13326808D01*
X11434596Y-13326808D02*
X11444120Y-13336331D01*
X11444120Y-13336331D02*
X11453644Y-13355379D01*
X11453644Y-13355379D02*
X11453644Y-13374427D01*
X11453644Y-13374427D02*
X11444120Y-13402998D01*
X11444120Y-13402998D02*
X11329834Y-13517284D01*
X11329834Y-13517284D02*
X11453644Y-13517284D01*
X11529834Y-13317284D02*
X11529834Y-13355379D01*
X11606025Y-13317284D02*
X11606025Y-13355379D01*
X11901263Y-13593474D02*
X11891739Y-13583950D01*
X11891739Y-13583950D02*
X11872691Y-13555379D01*
X11872691Y-13555379D02*
X11863168Y-13536331D01*
X11863168Y-13536331D02*
X11853644Y-13507760D01*
X11853644Y-13507760D02*
X11844120Y-13460141D01*
X11844120Y-13460141D02*
X11844120Y-13422046D01*
X11844120Y-13422046D02*
X11853644Y-13374427D01*
X11853644Y-13374427D02*
X11863168Y-13345855D01*
X11863168Y-13345855D02*
X11872691Y-13326808D01*
X11872691Y-13326808D02*
X11891739Y-13298236D01*
X11891739Y-13298236D02*
X11901263Y-13288712D01*
X12082215Y-13517284D02*
X11967929Y-13517284D01*
X12025072Y-13517284D02*
X12025072Y-13317284D01*
X12025072Y-13317284D02*
X12006025Y-13345855D01*
X12006025Y-13345855D02*
X11986977Y-13364903D01*
X11986977Y-13364903D02*
X11967929Y-13374427D01*
X12196501Y-13402998D02*
X12177453Y-13393474D01*
X12177453Y-13393474D02*
X12167929Y-13383950D01*
X12167929Y-13383950D02*
X12158406Y-13364903D01*
X12158406Y-13364903D02*
X12158406Y-13355379D01*
X12158406Y-13355379D02*
X12167929Y-13336331D01*
X12167929Y-13336331D02*
X12177453Y-13326808D01*
X12177453Y-13326808D02*
X12196501Y-13317284D01*
X12196501Y-13317284D02*
X12234596Y-13317284D01*
X12234596Y-13317284D02*
X12253644Y-13326808D01*
X12253644Y-13326808D02*
X12263168Y-13336331D01*
X12263168Y-13336331D02*
X12272691Y-13355379D01*
X12272691Y-13355379D02*
X12272691Y-13364903D01*
X12272691Y-13364903D02*
X12263168Y-13383950D01*
X12263168Y-13383950D02*
X12253644Y-13393474D01*
X12253644Y-13393474D02*
X12234596Y-13402998D01*
X12234596Y-13402998D02*
X12196501Y-13402998D01*
X12196501Y-13402998D02*
X12177453Y-13412522D01*
X12177453Y-13412522D02*
X12167929Y-13422046D01*
X12167929Y-13422046D02*
X12158406Y-13441093D01*
X12158406Y-13441093D02*
X12158406Y-13479188D01*
X12158406Y-13479188D02*
X12167929Y-13498236D01*
X12167929Y-13498236D02*
X12177453Y-13507760D01*
X12177453Y-13507760D02*
X12196501Y-13517284D01*
X12196501Y-13517284D02*
X12234596Y-13517284D01*
X12234596Y-13517284D02*
X12253644Y-13507760D01*
X12253644Y-13507760D02*
X12263168Y-13498236D01*
X12263168Y-13498236D02*
X12272691Y-13479188D01*
X12272691Y-13479188D02*
X12272691Y-13441093D01*
X12272691Y-13441093D02*
X12263168Y-13422046D01*
X12263168Y-13422046D02*
X12253644Y-13412522D01*
X12253644Y-13412522D02*
X12234596Y-13402998D01*
X12510787Y-13517284D02*
X12510787Y-13317284D01*
X12596501Y-13517284D02*
X12596501Y-13412522D01*
X12596501Y-13412522D02*
X12586977Y-13393474D01*
X12586977Y-13393474D02*
X12567930Y-13383950D01*
X12567930Y-13383950D02*
X12539358Y-13383950D01*
X12539358Y-13383950D02*
X12520310Y-13393474D01*
X12520310Y-13393474D02*
X12510787Y-13402998D01*
X12720310Y-13517284D02*
X12701263Y-13507760D01*
X12701263Y-13507760D02*
X12691739Y-13498236D01*
X12691739Y-13498236D02*
X12682215Y-13479188D01*
X12682215Y-13479188D02*
X12682215Y-13422046D01*
X12682215Y-13422046D02*
X12691739Y-13402998D01*
X12691739Y-13402998D02*
X12701263Y-13393474D01*
X12701263Y-13393474D02*
X12720310Y-13383950D01*
X12720310Y-13383950D02*
X12748882Y-13383950D01*
X12748882Y-13383950D02*
X12767930Y-13393474D01*
X12767930Y-13393474D02*
X12777453Y-13402998D01*
X12777453Y-13402998D02*
X12786977Y-13422046D01*
X12786977Y-13422046D02*
X12786977Y-13479188D01*
X12786977Y-13479188D02*
X12777453Y-13498236D01*
X12777453Y-13498236D02*
X12767930Y-13507760D01*
X12767930Y-13507760D02*
X12748882Y-13517284D01*
X12748882Y-13517284D02*
X12720310Y-13517284D01*
X12901263Y-13517284D02*
X12882215Y-13507760D01*
X12882215Y-13507760D02*
X12872691Y-13488712D01*
X12872691Y-13488712D02*
X12872691Y-13317284D01*
X13053644Y-13507760D02*
X13034596Y-13517284D01*
X13034596Y-13517284D02*
X12996501Y-13517284D01*
X12996501Y-13517284D02*
X12977453Y-13507760D01*
X12977453Y-13507760D02*
X12967930Y-13488712D01*
X12967930Y-13488712D02*
X12967930Y-13412522D01*
X12967930Y-13412522D02*
X12977453Y-13393474D01*
X12977453Y-13393474D02*
X12996501Y-13383950D01*
X12996501Y-13383950D02*
X13034596Y-13383950D01*
X13034596Y-13383950D02*
X13053644Y-13393474D01*
X13053644Y-13393474D02*
X13063168Y-13412522D01*
X13063168Y-13412522D02*
X13063168Y-13431569D01*
X13063168Y-13431569D02*
X12967930Y-13450617D01*
X13139358Y-13507760D02*
X13158406Y-13517284D01*
X13158406Y-13517284D02*
X13196501Y-13517284D01*
X13196501Y-13517284D02*
X13215549Y-13507760D01*
X13215549Y-13507760D02*
X13225072Y-13488712D01*
X13225072Y-13488712D02*
X13225072Y-13479188D01*
X13225072Y-13479188D02*
X13215549Y-13460141D01*
X13215549Y-13460141D02*
X13196501Y-13450617D01*
X13196501Y-13450617D02*
X13167930Y-13450617D01*
X13167930Y-13450617D02*
X13148882Y-13441093D01*
X13148882Y-13441093D02*
X13139358Y-13422046D01*
X13139358Y-13422046D02*
X13139358Y-13412522D01*
X13139358Y-13412522D02*
X13148882Y-13393474D01*
X13148882Y-13393474D02*
X13167930Y-13383950D01*
X13167930Y-13383950D02*
X13196501Y-13383950D01*
X13196501Y-13383950D02*
X13215549Y-13393474D01*
X13291739Y-13593474D02*
X13301263Y-13583950D01*
X13301263Y-13583950D02*
X13320311Y-13555379D01*
X13320311Y-13555379D02*
X13329834Y-13536331D01*
X13329834Y-13536331D02*
X13339358Y-13507760D01*
X13339358Y-13507760D02*
X13348882Y-13460141D01*
X13348882Y-13460141D02*
X13348882Y-13422046D01*
X13348882Y-13422046D02*
X13339358Y-13374427D01*
X13339358Y-13374427D02*
X13329834Y-13345855D01*
X13329834Y-13345855D02*
X13320311Y-13326808D01*
X13320311Y-13326808D02*
X13301263Y-13298236D01*
X13301263Y-13298236D02*
X13291739Y-13288712D01*
D14*
X8250200Y-13765800D02*
X8326200Y-13689800D01*
X8250200Y-13613800D01*
X8174200Y-13689800D01*
X8250200Y-13765800D01*
D11*
X8691739Y-13781284D02*
X8577453Y-13781284D01*
X8634596Y-13781284D02*
X8634596Y-13581284D01*
X8634596Y-13581284D02*
X8615548Y-13609855D01*
X8615548Y-13609855D02*
X8596501Y-13628903D01*
X8596501Y-13628903D02*
X8577453Y-13638427D01*
X8777453Y-13762236D02*
X8786977Y-13771760D01*
X8786977Y-13771760D02*
X8777453Y-13781284D01*
X8777453Y-13781284D02*
X8767929Y-13771760D01*
X8767929Y-13771760D02*
X8777453Y-13762236D01*
X8777453Y-13762236D02*
X8777453Y-13781284D01*
X8967929Y-13581284D02*
X8872691Y-13581284D01*
X8872691Y-13581284D02*
X8863167Y-13676522D01*
X8863167Y-13676522D02*
X8872691Y-13666998D01*
X8872691Y-13666998D02*
X8891739Y-13657474D01*
X8891739Y-13657474D02*
X8939358Y-13657474D01*
X8939358Y-13657474D02*
X8958405Y-13666998D01*
X8958405Y-13666998D02*
X8967929Y-13676522D01*
X8967929Y-13676522D02*
X8977453Y-13695569D01*
X8977453Y-13695569D02*
X8977453Y-13743188D01*
X8977453Y-13743188D02*
X8967929Y-13762236D01*
X8967929Y-13762236D02*
X8958405Y-13771760D01*
X8958405Y-13771760D02*
X8939358Y-13781284D01*
X8939358Y-13781284D02*
X8891739Y-13781284D01*
X8891739Y-13781284D02*
X8872691Y-13771760D01*
X8872691Y-13771760D02*
X8863167Y-13762236D01*
X9053644Y-13600331D02*
X9063167Y-13590808D01*
X9063167Y-13590808D02*
X9082215Y-13581284D01*
X9082215Y-13581284D02*
X9129834Y-13581284D01*
X9129834Y-13581284D02*
X9148882Y-13590808D01*
X9148882Y-13590808D02*
X9158405Y-13600331D01*
X9158405Y-13600331D02*
X9167929Y-13619379D01*
X9167929Y-13619379D02*
X9167929Y-13638427D01*
X9167929Y-13638427D02*
X9158405Y-13666998D01*
X9158405Y-13666998D02*
X9044120Y-13781284D01*
X9044120Y-13781284D02*
X9167929Y-13781284D01*
X9291739Y-13581284D02*
X9310786Y-13581284D01*
X9310786Y-13581284D02*
X9329834Y-13590808D01*
X9329834Y-13590808D02*
X9339358Y-13600331D01*
X9339358Y-13600331D02*
X9348882Y-13619379D01*
X9348882Y-13619379D02*
X9358405Y-13657474D01*
X9358405Y-13657474D02*
X9358405Y-13705093D01*
X9358405Y-13705093D02*
X9348882Y-13743188D01*
X9348882Y-13743188D02*
X9339358Y-13762236D01*
X9339358Y-13762236D02*
X9329834Y-13771760D01*
X9329834Y-13771760D02*
X9310786Y-13781284D01*
X9310786Y-13781284D02*
X9291739Y-13781284D01*
X9291739Y-13781284D02*
X9272691Y-13771760D01*
X9272691Y-13771760D02*
X9263167Y-13762236D01*
X9263167Y-13762236D02*
X9253644Y-13743188D01*
X9253644Y-13743188D02*
X9244120Y-13705093D01*
X9244120Y-13705093D02*
X9244120Y-13657474D01*
X9244120Y-13657474D02*
X9253644Y-13619379D01*
X9253644Y-13619379D02*
X9263167Y-13600331D01*
X9263167Y-13600331D02*
X9272691Y-13590808D01*
X9272691Y-13590808D02*
X9291739Y-13581284D01*
X9444120Y-13781284D02*
X9444120Y-13647950D01*
X9444120Y-13666998D02*
X9453644Y-13657474D01*
X9453644Y-13657474D02*
X9472691Y-13647950D01*
X9472691Y-13647950D02*
X9501263Y-13647950D01*
X9501263Y-13647950D02*
X9520310Y-13657474D01*
X9520310Y-13657474D02*
X9529834Y-13676522D01*
X9529834Y-13676522D02*
X9529834Y-13781284D01*
X9529834Y-13676522D02*
X9539358Y-13657474D01*
X9539358Y-13657474D02*
X9558405Y-13647950D01*
X9558405Y-13647950D02*
X9586977Y-13647950D01*
X9586977Y-13647950D02*
X9606025Y-13657474D01*
X9606025Y-13657474D02*
X9615548Y-13676522D01*
X9615548Y-13676522D02*
X9615548Y-13781284D01*
X9710786Y-13781284D02*
X9710786Y-13647950D01*
X9710786Y-13666998D02*
X9720310Y-13657474D01*
X9720310Y-13657474D02*
X9739358Y-13647950D01*
X9739358Y-13647950D02*
X9767929Y-13647950D01*
X9767929Y-13647950D02*
X9786977Y-13657474D01*
X9786977Y-13657474D02*
X9796501Y-13676522D01*
X9796501Y-13676522D02*
X9796501Y-13781284D01*
X9796501Y-13676522D02*
X9806025Y-13657474D01*
X9806025Y-13657474D02*
X9825072Y-13647950D01*
X9825072Y-13647950D02*
X9853644Y-13647950D01*
X9853644Y-13647950D02*
X9872691Y-13657474D01*
X9872691Y-13657474D02*
X9882215Y-13676522D01*
X9882215Y-13676522D02*
X9882215Y-13781284D01*
X10272691Y-13571760D02*
X10101263Y-13828903D01*
X10529834Y-13581284D02*
X10548882Y-13581284D01*
X10548882Y-13581284D02*
X10567929Y-13590808D01*
X10567929Y-13590808D02*
X10577453Y-13600331D01*
X10577453Y-13600331D02*
X10586977Y-13619379D01*
X10586977Y-13619379D02*
X10596501Y-13657474D01*
X10596501Y-13657474D02*
X10596501Y-13705093D01*
X10596501Y-13705093D02*
X10586977Y-13743188D01*
X10586977Y-13743188D02*
X10577453Y-13762236D01*
X10577453Y-13762236D02*
X10567929Y-13771760D01*
X10567929Y-13771760D02*
X10548882Y-13781284D01*
X10548882Y-13781284D02*
X10529834Y-13781284D01*
X10529834Y-13781284D02*
X10510787Y-13771760D01*
X10510787Y-13771760D02*
X10501263Y-13762236D01*
X10501263Y-13762236D02*
X10491739Y-13743188D01*
X10491739Y-13743188D02*
X10482215Y-13705093D01*
X10482215Y-13705093D02*
X10482215Y-13657474D01*
X10482215Y-13657474D02*
X10491739Y-13619379D01*
X10491739Y-13619379D02*
X10501263Y-13600331D01*
X10501263Y-13600331D02*
X10510787Y-13590808D01*
X10510787Y-13590808D02*
X10529834Y-13581284D01*
X10682215Y-13762236D02*
X10691739Y-13771760D01*
X10691739Y-13771760D02*
X10682215Y-13781284D01*
X10682215Y-13781284D02*
X10672691Y-13771760D01*
X10672691Y-13771760D02*
X10682215Y-13762236D01*
X10682215Y-13762236D02*
X10682215Y-13781284D01*
X10815548Y-13581284D02*
X10834596Y-13581284D01*
X10834596Y-13581284D02*
X10853644Y-13590808D01*
X10853644Y-13590808D02*
X10863168Y-13600331D01*
X10863168Y-13600331D02*
X10872691Y-13619379D01*
X10872691Y-13619379D02*
X10882215Y-13657474D01*
X10882215Y-13657474D02*
X10882215Y-13705093D01*
X10882215Y-13705093D02*
X10872691Y-13743188D01*
X10872691Y-13743188D02*
X10863168Y-13762236D01*
X10863168Y-13762236D02*
X10853644Y-13771760D01*
X10853644Y-13771760D02*
X10834596Y-13781284D01*
X10834596Y-13781284D02*
X10815548Y-13781284D01*
X10815548Y-13781284D02*
X10796501Y-13771760D01*
X10796501Y-13771760D02*
X10786977Y-13762236D01*
X10786977Y-13762236D02*
X10777453Y-13743188D01*
X10777453Y-13743188D02*
X10767929Y-13705093D01*
X10767929Y-13705093D02*
X10767929Y-13657474D01*
X10767929Y-13657474D02*
X10777453Y-13619379D01*
X10777453Y-13619379D02*
X10786977Y-13600331D01*
X10786977Y-13600331D02*
X10796501Y-13590808D01*
X10796501Y-13590808D02*
X10815548Y-13581284D01*
X11063168Y-13581284D02*
X10967929Y-13581284D01*
X10967929Y-13581284D02*
X10958406Y-13676522D01*
X10958406Y-13676522D02*
X10967929Y-13666998D01*
X10967929Y-13666998D02*
X10986977Y-13657474D01*
X10986977Y-13657474D02*
X11034596Y-13657474D01*
X11034596Y-13657474D02*
X11053644Y-13666998D01*
X11053644Y-13666998D02*
X11063168Y-13676522D01*
X11063168Y-13676522D02*
X11072691Y-13695569D01*
X11072691Y-13695569D02*
X11072691Y-13743188D01*
X11072691Y-13743188D02*
X11063168Y-13762236D01*
X11063168Y-13762236D02*
X11053644Y-13771760D01*
X11053644Y-13771760D02*
X11034596Y-13781284D01*
X11034596Y-13781284D02*
X10986977Y-13781284D01*
X10986977Y-13781284D02*
X10967929Y-13771760D01*
X10967929Y-13771760D02*
X10958406Y-13762236D01*
X11167929Y-13781284D02*
X11206025Y-13781284D01*
X11206025Y-13781284D02*
X11225072Y-13771760D01*
X11225072Y-13771760D02*
X11234596Y-13762236D01*
X11234596Y-13762236D02*
X11253644Y-13733665D01*
X11253644Y-13733665D02*
X11263167Y-13695569D01*
X11263167Y-13695569D02*
X11263167Y-13619379D01*
X11263167Y-13619379D02*
X11253644Y-13600331D01*
X11253644Y-13600331D02*
X11244120Y-13590808D01*
X11244120Y-13590808D02*
X11225072Y-13581284D01*
X11225072Y-13581284D02*
X11186977Y-13581284D01*
X11186977Y-13581284D02*
X11167929Y-13590808D01*
X11167929Y-13590808D02*
X11158406Y-13600331D01*
X11158406Y-13600331D02*
X11148882Y-13619379D01*
X11148882Y-13619379D02*
X11148882Y-13666998D01*
X11148882Y-13666998D02*
X11158406Y-13686046D01*
X11158406Y-13686046D02*
X11167929Y-13695569D01*
X11167929Y-13695569D02*
X11186977Y-13705093D01*
X11186977Y-13705093D02*
X11225072Y-13705093D01*
X11225072Y-13705093D02*
X11244120Y-13695569D01*
X11244120Y-13695569D02*
X11253644Y-13686046D01*
X11253644Y-13686046D02*
X11263167Y-13666998D01*
X11377453Y-13666998D02*
X11358406Y-13657474D01*
X11358406Y-13657474D02*
X11348882Y-13647950D01*
X11348882Y-13647950D02*
X11339358Y-13628903D01*
X11339358Y-13628903D02*
X11339358Y-13619379D01*
X11339358Y-13619379D02*
X11348882Y-13600331D01*
X11348882Y-13600331D02*
X11358406Y-13590808D01*
X11358406Y-13590808D02*
X11377453Y-13581284D01*
X11377453Y-13581284D02*
X11415548Y-13581284D01*
X11415548Y-13581284D02*
X11434596Y-13590808D01*
X11434596Y-13590808D02*
X11444120Y-13600331D01*
X11444120Y-13600331D02*
X11453644Y-13619379D01*
X11453644Y-13619379D02*
X11453644Y-13628903D01*
X11453644Y-13628903D02*
X11444120Y-13647950D01*
X11444120Y-13647950D02*
X11434596Y-13657474D01*
X11434596Y-13657474D02*
X11415548Y-13666998D01*
X11415548Y-13666998D02*
X11377453Y-13666998D01*
X11377453Y-13666998D02*
X11358406Y-13676522D01*
X11358406Y-13676522D02*
X11348882Y-13686046D01*
X11348882Y-13686046D02*
X11339358Y-13705093D01*
X11339358Y-13705093D02*
X11339358Y-13743188D01*
X11339358Y-13743188D02*
X11348882Y-13762236D01*
X11348882Y-13762236D02*
X11358406Y-13771760D01*
X11358406Y-13771760D02*
X11377453Y-13781284D01*
X11377453Y-13781284D02*
X11415548Y-13781284D01*
X11415548Y-13781284D02*
X11434596Y-13771760D01*
X11434596Y-13771760D02*
X11444120Y-13762236D01*
X11444120Y-13762236D02*
X11453644Y-13743188D01*
X11453644Y-13743188D02*
X11453644Y-13705093D01*
X11453644Y-13705093D02*
X11444120Y-13686046D01*
X11444120Y-13686046D02*
X11434596Y-13676522D01*
X11434596Y-13676522D02*
X11415548Y-13666998D01*
X11529834Y-13581284D02*
X11529834Y-13619379D01*
X11606025Y-13581284D02*
X11606025Y-13619379D01*
X11901263Y-13857474D02*
X11891739Y-13847950D01*
X11891739Y-13847950D02*
X11872691Y-13819379D01*
X11872691Y-13819379D02*
X11863168Y-13800331D01*
X11863168Y-13800331D02*
X11853644Y-13771760D01*
X11853644Y-13771760D02*
X11844120Y-13724141D01*
X11844120Y-13724141D02*
X11844120Y-13686046D01*
X11844120Y-13686046D02*
X11853644Y-13638427D01*
X11853644Y-13638427D02*
X11863168Y-13609855D01*
X11863168Y-13609855D02*
X11872691Y-13590808D01*
X11872691Y-13590808D02*
X11891739Y-13562236D01*
X11891739Y-13562236D02*
X11901263Y-13552712D01*
X12063168Y-13647950D02*
X12063168Y-13781284D01*
X12015548Y-13571760D02*
X11967929Y-13714617D01*
X11967929Y-13714617D02*
X12091739Y-13714617D01*
X12320310Y-13781284D02*
X12320310Y-13581284D01*
X12406025Y-13781284D02*
X12406025Y-13676522D01*
X12406025Y-13676522D02*
X12396501Y-13657474D01*
X12396501Y-13657474D02*
X12377453Y-13647950D01*
X12377453Y-13647950D02*
X12348882Y-13647950D01*
X12348882Y-13647950D02*
X12329834Y-13657474D01*
X12329834Y-13657474D02*
X12320310Y-13666998D01*
X12529834Y-13781284D02*
X12510787Y-13771760D01*
X12510787Y-13771760D02*
X12501263Y-13762236D01*
X12501263Y-13762236D02*
X12491739Y-13743188D01*
X12491739Y-13743188D02*
X12491739Y-13686046D01*
X12491739Y-13686046D02*
X12501263Y-13666998D01*
X12501263Y-13666998D02*
X12510787Y-13657474D01*
X12510787Y-13657474D02*
X12529834Y-13647950D01*
X12529834Y-13647950D02*
X12558406Y-13647950D01*
X12558406Y-13647950D02*
X12577453Y-13657474D01*
X12577453Y-13657474D02*
X12586977Y-13666998D01*
X12586977Y-13666998D02*
X12596501Y-13686046D01*
X12596501Y-13686046D02*
X12596501Y-13743188D01*
X12596501Y-13743188D02*
X12586977Y-13762236D01*
X12586977Y-13762236D02*
X12577453Y-13771760D01*
X12577453Y-13771760D02*
X12558406Y-13781284D01*
X12558406Y-13781284D02*
X12529834Y-13781284D01*
X12710787Y-13781284D02*
X12691739Y-13771760D01*
X12691739Y-13771760D02*
X12682215Y-13752712D01*
X12682215Y-13752712D02*
X12682215Y-13581284D01*
X12863168Y-13771760D02*
X12844120Y-13781284D01*
X12844120Y-13781284D02*
X12806025Y-13781284D01*
X12806025Y-13781284D02*
X12786977Y-13771760D01*
X12786977Y-13771760D02*
X12777453Y-13752712D01*
X12777453Y-13752712D02*
X12777453Y-13676522D01*
X12777453Y-13676522D02*
X12786977Y-13657474D01*
X12786977Y-13657474D02*
X12806025Y-13647950D01*
X12806025Y-13647950D02*
X12844120Y-13647950D01*
X12844120Y-13647950D02*
X12863168Y-13657474D01*
X12863168Y-13657474D02*
X12872691Y-13676522D01*
X12872691Y-13676522D02*
X12872691Y-13695569D01*
X12872691Y-13695569D02*
X12777453Y-13714617D01*
X12948882Y-13771760D02*
X12967930Y-13781284D01*
X12967930Y-13781284D02*
X13006025Y-13781284D01*
X13006025Y-13781284D02*
X13025072Y-13771760D01*
X13025072Y-13771760D02*
X13034596Y-13752712D01*
X13034596Y-13752712D02*
X13034596Y-13743188D01*
X13034596Y-13743188D02*
X13025072Y-13724141D01*
X13025072Y-13724141D02*
X13006025Y-13714617D01*
X13006025Y-13714617D02*
X12977453Y-13714617D01*
X12977453Y-13714617D02*
X12958406Y-13705093D01*
X12958406Y-13705093D02*
X12948882Y-13686046D01*
X12948882Y-13686046D02*
X12948882Y-13676522D01*
X12948882Y-13676522D02*
X12958406Y-13657474D01*
X12958406Y-13657474D02*
X12977453Y-13647950D01*
X12977453Y-13647950D02*
X13006025Y-13647950D01*
X13006025Y-13647950D02*
X13025072Y-13657474D01*
X13101263Y-13857474D02*
X13110787Y-13847950D01*
X13110787Y-13847950D02*
X13129834Y-13819379D01*
X13129834Y-13819379D02*
X13139358Y-13800331D01*
X13139358Y-13800331D02*
X13148882Y-13771760D01*
X13148882Y-13771760D02*
X13158406Y-13724141D01*
X13158406Y-13724141D02*
X13158406Y-13686046D01*
X13158406Y-13686046D02*
X13148882Y-13638427D01*
X13148882Y-13638427D02*
X13139358Y-13609855D01*
X13139358Y-13609855D02*
X13129834Y-13590808D01*
X13129834Y-13590808D02*
X13110787Y-13562236D01*
X13110787Y-13562236D02*
X13101263Y-13552712D01*
M02*
