%TF.GenerationSoftware,KiCad,Pcbnew,7.0.10*%
%TF.CreationDate,2024-02-13T14:16:51+07:00*%
%TF.ProjectId,AniSignage v2,416e6953-6967-46e6-9167-652076322e6b,rev?*%
%TF.SameCoordinates,Original*%
%TF.FileFunction,Soldermask,Top*%
%TF.FilePolarity,Negative*%
%FSLAX46Y46*%
G04 Gerber Fmt 4.6, Leading zero omitted, Abs format (unit mm)*
G04 Created by KiCad (PCBNEW 7.0.10) date 2024-02-13 14:16:51*
%MOMM*%
%LPD*%
G01*
G04 APERTURE LIST*
G04 Aperture macros list*
%AMRoundRect*
0 Rectangle with rounded corners*
0 $1 Rounding radius*
0 $2 $3 $4 $5 $6 $7 $8 $9 X,Y pos of 4 corners*
0 Add a 4 corners polygon primitive as box body*
4,1,4,$2,$3,$4,$5,$6,$7,$8,$9,$2,$3,0*
0 Add four circle primitives for the rounded corners*
1,1,$1+$1,$2,$3*
1,1,$1+$1,$4,$5*
1,1,$1+$1,$6,$7*
1,1,$1+$1,$8,$9*
0 Add four rect primitives between the rounded corners*
20,1,$1+$1,$2,$3,$4,$5,0*
20,1,$1+$1,$4,$5,$6,$7,0*
20,1,$1+$1,$6,$7,$8,$9,0*
20,1,$1+$1,$8,$9,$2,$3,0*%
%AMFreePoly0*
4,1,6,1.000000,0.000000,0.500000,-0.750000,-0.500000,-0.750000,-0.500000,0.750000,0.500000,0.750000,1.000000,0.000000,1.000000,0.000000,$1*%
%AMFreePoly1*
4,1,6,0.500000,-0.750000,-0.650000,-0.750000,-0.150000,0.000000,-0.650000,0.750000,0.500000,0.750000,0.500000,-0.750000,0.500000,-0.750000,$1*%
G04 Aperture macros list end*
%ADD10RoundRect,0.200000X0.200000X0.275000X-0.200000X0.275000X-0.200000X-0.275000X0.200000X-0.275000X0*%
%ADD11RoundRect,0.150000X-0.587500X-0.150000X0.587500X-0.150000X0.587500X0.150000X-0.587500X0.150000X0*%
%ADD12RoundRect,0.250000X0.300000X-0.300000X0.300000X0.300000X-0.300000X0.300000X-0.300000X-0.300000X0*%
%ADD13RoundRect,0.243750X0.243750X0.456250X-0.243750X0.456250X-0.243750X-0.456250X0.243750X-0.456250X0*%
%ADD14RoundRect,0.225000X0.250000X-0.225000X0.250000X0.225000X-0.250000X0.225000X-0.250000X-0.225000X0*%
%ADD15R,2.400000X2.400000*%
%ADD16C,2.400000*%
%ADD17RoundRect,0.200000X-0.200000X-0.275000X0.200000X-0.275000X0.200000X0.275000X-0.200000X0.275000X0*%
%ADD18RoundRect,0.225000X-0.250000X0.225000X-0.250000X-0.225000X0.250000X-0.225000X0.250000X0.225000X0*%
%ADD19RoundRect,0.200000X0.275000X-0.200000X0.275000X0.200000X-0.275000X0.200000X-0.275000X-0.200000X0*%
%ADD20RoundRect,0.150000X-0.150000X0.820000X-0.150000X-0.820000X0.150000X-0.820000X0.150000X0.820000X0*%
%ADD21R,3.510000X2.620000*%
%ADD22RoundRect,0.225000X-0.225000X-0.250000X0.225000X-0.250000X0.225000X0.250000X-0.225000X0.250000X0*%
%ADD23RoundRect,0.250000X0.300000X0.300000X-0.300000X0.300000X-0.300000X-0.300000X0.300000X-0.300000X0*%
%ADD24RoundRect,0.200000X-0.275000X0.200000X-0.275000X-0.200000X0.275000X-0.200000X0.275000X0.200000X0*%
%ADD25RoundRect,0.150000X-0.820000X-0.150000X0.820000X-0.150000X0.820000X0.150000X-0.820000X0.150000X0*%
%ADD26R,2.620000X3.510000*%
%ADD27RoundRect,0.250000X0.650000X-0.325000X0.650000X0.325000X-0.650000X0.325000X-0.650000X-0.325000X0*%
%ADD28RoundRect,0.150000X0.150000X-0.820000X0.150000X0.820000X-0.150000X0.820000X-0.150000X-0.820000X0*%
%ADD29FreePoly0,270.000000*%
%ADD30FreePoly1,270.000000*%
%ADD31RoundRect,0.250000X-0.300000X-0.300000X0.300000X-0.300000X0.300000X0.300000X-0.300000X0.300000X0*%
%ADD32RoundRect,0.225000X0.225000X0.250000X-0.225000X0.250000X-0.225000X-0.250000X0.225000X-0.250000X0*%
%ADD33R,5.400000X3.900000*%
%ADD34RoundRect,0.150000X-0.150000X0.587500X-0.150000X-0.587500X0.150000X-0.587500X0.150000X0.587500X0*%
%ADD35RoundRect,0.250000X0.325000X0.650000X-0.325000X0.650000X-0.325000X-0.650000X0.325000X-0.650000X0*%
%ADD36C,3.200000*%
%ADD37C,2.000000*%
%ADD38R,3.900000X5.400000*%
%ADD39R,2.790000X1.190000*%
%ADD40RoundRect,0.250000X-0.650000X0.325000X-0.650000X-0.325000X0.650000X-0.325000X0.650000X0.325000X0*%
%ADD41RoundRect,0.250000X-1.450000X0.312500X-1.450000X-0.312500X1.450000X-0.312500X1.450000X0.312500X0*%
%ADD42RoundRect,0.250000X-0.325000X-0.650000X0.325000X-0.650000X0.325000X0.650000X-0.325000X0.650000X0*%
%ADD43R,3.000000X3.000000*%
%ADD44C,3.000000*%
%ADD45RoundRect,0.250000X-0.300000X0.300000X-0.300000X-0.300000X0.300000X-0.300000X0.300000X0.300000X0*%
%ADD46RoundRect,0.150000X0.587500X0.150000X-0.587500X0.150000X-0.587500X-0.150000X0.587500X-0.150000X0*%
%ADD47RoundRect,0.243750X0.456250X-0.243750X0.456250X0.243750X-0.456250X0.243750X-0.456250X-0.243750X0*%
%ADD48R,1.190000X2.790000*%
%ADD49RoundRect,0.150000X0.150000X-0.587500X0.150000X0.587500X-0.150000X0.587500X-0.150000X-0.587500X0*%
%ADD50R,1.580000X1.780000*%
%ADD51O,1.580000X1.780000*%
%ADD52RoundRect,0.243750X-0.243750X-0.456250X0.243750X-0.456250X0.243750X0.456250X-0.243750X0.456250X0*%
%ADD53RoundRect,0.150000X0.820000X0.150000X-0.820000X0.150000X-0.820000X-0.150000X0.820000X-0.150000X0*%
%ADD54C,2.010000*%
G04 APERTURE END LIST*
D10*
%TO.C,R14*%
X134916500Y-57150000D03*
X133266500Y-57150000D03*
%TD*%
D11*
%TO.C,TR1*%
X113889000Y-63058000D03*
X113889000Y-64958000D03*
X115764000Y-64008000D03*
%TD*%
D12*
%TO.C,D13*%
X131462180Y-107064000D03*
X131462180Y-104264000D03*
%TD*%
D13*
%TO.C,D14*%
X140427475Y-109728000D03*
X138552475Y-109728000D03*
%TD*%
D10*
%TO.C,R5*%
X103381000Y-71628000D03*
X101731000Y-71628000D03*
%TD*%
D14*
%TO.C,C54*%
X162052000Y-82702000D03*
X162052000Y-81152000D03*
%TD*%
D15*
%TO.C,I4*%
X120238885Y-115470000D03*
D16*
X123738885Y-115470000D03*
%TD*%
D17*
%TO.C,R54*%
X173736000Y-104394000D03*
X175386000Y-104394000D03*
%TD*%
D15*
%TO.C,I2*%
X102308295Y-115470000D03*
D16*
X105808295Y-115470000D03*
%TD*%
D18*
%TO.C,C26*%
X174752000Y-65634000D03*
X174752000Y-67184000D03*
%TD*%
D19*
%TO.C,R39*%
X173228000Y-70358000D03*
X173228000Y-68708000D03*
%TD*%
D14*
%TO.C,C29*%
X179564000Y-55626000D03*
X179564000Y-54076000D03*
%TD*%
D20*
%TO.C,U10*%
X179564000Y-58079000D03*
X178294000Y-58079000D03*
X177024000Y-58079000D03*
X175754000Y-58079000D03*
X175754000Y-63039000D03*
X177024000Y-63039000D03*
X178294000Y-63039000D03*
X179564000Y-63039000D03*
D21*
X177659000Y-60559000D03*
%TD*%
D18*
%TO.C,C57*%
X163830000Y-94970000D03*
X163830000Y-96520000D03*
%TD*%
D22*
%TO.C,C18*%
X157328000Y-71628000D03*
X158878000Y-71628000D03*
%TD*%
D23*
%TO.C,D17*%
X179564000Y-51816000D03*
X176764000Y-51816000D03*
%TD*%
D24*
%TO.C,R62*%
X158750000Y-77978000D03*
X158750000Y-79628000D03*
%TD*%
D25*
%TO.C,U9*%
X149773000Y-65292000D03*
X149773000Y-66562000D03*
X149773000Y-67832000D03*
X149773000Y-69102000D03*
X154733000Y-69102000D03*
X154733000Y-67832000D03*
X154733000Y-66562000D03*
X154733000Y-65292000D03*
D26*
X152253000Y-67197000D03*
%TD*%
D18*
%TO.C,C34*%
X176276000Y-88494000D03*
X176276000Y-90044000D03*
%TD*%
D24*
%TO.C,R11*%
X155194000Y-106934000D03*
X155194000Y-108584000D03*
%TD*%
D27*
%TO.C,C11*%
X127000000Y-70514000D03*
X127000000Y-67564000D03*
%TD*%
D28*
%TO.C,U13*%
X158764000Y-90257000D03*
X160034000Y-90257000D03*
X161304000Y-90257000D03*
X162574000Y-90257000D03*
X162574000Y-85297000D03*
X161304000Y-85297000D03*
X160034000Y-85297000D03*
X158764000Y-85297000D03*
D21*
X160669000Y-87777000D03*
%TD*%
D14*
%TO.C,C53*%
X158750000Y-82702000D03*
X158750000Y-81152000D03*
%TD*%
D19*
%TO.C,R50*%
X172212000Y-86360000D03*
X172212000Y-84710000D03*
%TD*%
D27*
%TO.C,C25*%
X172212000Y-54766000D03*
X172212000Y-51816000D03*
%TD*%
D17*
%TO.C,R33*%
X148527000Y-72644000D03*
X150177000Y-72644000D03*
%TD*%
%TO.C,R12*%
X138406000Y-55118000D03*
X140056000Y-55118000D03*
%TD*%
D29*
%TO.C,JP1*%
X88900000Y-104140000D03*
D30*
X88900000Y-105590000D03*
%TD*%
D31*
%TO.C,D20*%
X158764000Y-96520000D03*
X161564000Y-96520000D03*
%TD*%
D32*
%TO.C,C32*%
X182943000Y-67818000D03*
X181393000Y-67818000D03*
%TD*%
D18*
%TO.C,C10*%
X91948000Y-62217000D03*
X91948000Y-63767000D03*
%TD*%
D33*
%TO.C,L3*%
X187452000Y-52920000D03*
X187452000Y-63920000D03*
%TD*%
D34*
%TO.C,TR10*%
X153538000Y-78389000D03*
X151638000Y-78389000D03*
X152588000Y-80264000D03*
%TD*%
D27*
%TO.C,C61*%
X145119000Y-80843000D03*
X145119000Y-77893000D03*
%TD*%
D32*
%TO.C,C43*%
X178460000Y-104394000D03*
X176910000Y-104394000D03*
%TD*%
D27*
%TO.C,C60*%
X147659000Y-80843000D03*
X147659000Y-77893000D03*
%TD*%
D35*
%TO.C,C15*%
X146460000Y-72644000D03*
X143510000Y-72644000D03*
%TD*%
D36*
%TO.C,H2*%
X86868000Y-116332000D03*
%TD*%
D37*
%TO.C,TP3*%
X98806000Y-108204000D03*
%TD*%
D22*
%TO.C,C16*%
X157328000Y-70104000D03*
X158878000Y-70104000D03*
%TD*%
D38*
%TO.C,L5*%
X191174000Y-112268000D03*
X180174000Y-112268000D03*
%TD*%
D39*
%TO.C,RV3*%
X133983000Y-66802000D03*
X138813000Y-69342000D03*
X133983000Y-71882000D03*
%TD*%
D17*
%TO.C,R2*%
X114177000Y-67564000D03*
X115827000Y-67564000D03*
%TD*%
D40*
%TO.C,C41*%
X193209000Y-90353000D03*
X193209000Y-93303000D03*
%TD*%
D18*
%TO.C,C22*%
X159512000Y-61913000D03*
X159512000Y-63463000D03*
%TD*%
D33*
%TO.C,L4*%
X187452000Y-75780000D03*
X187452000Y-86780000D03*
%TD*%
D41*
%TO.C,F1*%
X119320000Y-63140500D03*
X119320000Y-67415500D03*
%TD*%
D10*
%TO.C,R34*%
X155194000Y-72644000D03*
X153544000Y-72644000D03*
%TD*%
D22*
%TO.C,C49*%
X188468000Y-104380000D03*
X190018000Y-104380000D03*
%TD*%
D32*
%TO.C,C17*%
X145060000Y-70358000D03*
X143510000Y-70358000D03*
%TD*%
D24*
%TO.C,R6*%
X88646000Y-66865000D03*
X88646000Y-68515000D03*
%TD*%
D10*
%TO.C,R32*%
X162052000Y-70104000D03*
X160402000Y-70104000D03*
%TD*%
D42*
%TO.C,C20*%
X159187000Y-54187000D03*
X162137000Y-54187000D03*
%TD*%
D17*
%TO.C,R8*%
X84885500Y-71882000D03*
X86535500Y-71882000D03*
%TD*%
D10*
%TO.C,R67*%
X156935000Y-78389000D03*
X155285000Y-78389000D03*
%TD*%
D37*
%TO.C,TP6*%
X125701885Y-108204000D03*
%TD*%
D43*
%TO.C,Vi2*%
X129540000Y-55575000D03*
D44*
X124460000Y-55575000D03*
%TD*%
D19*
%TO.C,R35*%
X161641000Y-63463000D03*
X161641000Y-61813000D03*
%TD*%
D45*
%TO.C,D16*%
X143510000Y-65292000D03*
X143510000Y-68092000D03*
%TD*%
D10*
%TO.C,R57*%
X187261000Y-97028000D03*
X185611000Y-97028000D03*
%TD*%
D37*
%TO.C,TP8*%
X143632475Y-108204000D03*
%TD*%
D19*
%TO.C,R47*%
X173228000Y-93218000D03*
X173228000Y-91568000D03*
%TD*%
D40*
%TO.C,C31*%
X193209000Y-67493000D03*
X193209000Y-70443000D03*
%TD*%
D19*
%TO.C,R46*%
X179578000Y-93218000D03*
X179578000Y-91568000D03*
%TD*%
D32*
%TO.C,C12*%
X124169000Y-67564000D03*
X122619000Y-67564000D03*
%TD*%
D46*
%TO.C,TR6*%
X161641000Y-60066000D03*
X161641000Y-58166000D03*
X159766000Y-59116000D03*
%TD*%
D17*
%TO.C,R51*%
X181393000Y-92807000D03*
X183043000Y-92807000D03*
%TD*%
D19*
%TO.C,R48*%
X174752000Y-93218000D03*
X174752000Y-91568000D03*
%TD*%
D12*
%TO.C,D15*%
X140427475Y-107064000D03*
X140427475Y-104264000D03*
%TD*%
D11*
%TO.C,TR4*%
X133604000Y-58740000D03*
X133604000Y-60640000D03*
X135479000Y-59690000D03*
%TD*%
D36*
%TO.C,H1*%
X86868000Y-53340000D03*
%TD*%
D11*
%TO.C,TR2*%
X133604000Y-53152000D03*
X133604000Y-55052000D03*
X135479000Y-54102000D03*
%TD*%
D32*
%TO.C,C46*%
X178460000Y-99568000D03*
X176910000Y-99568000D03*
%TD*%
D19*
%TO.C,R38*%
X179578000Y-70358000D03*
X179578000Y-68708000D03*
%TD*%
D17*
%TO.C,R29*%
X160402000Y-66802000D03*
X162052000Y-66802000D03*
%TD*%
D27*
%TO.C,C35*%
X172212000Y-77626000D03*
X172212000Y-74676000D03*
%TD*%
D14*
%TO.C,C56*%
X163576000Y-82702000D03*
X163576000Y-81152000D03*
%TD*%
D18*
%TO.C,C33*%
X179578000Y-88494000D03*
X179578000Y-90044000D03*
%TD*%
D36*
%TO.C,H5*%
X166878000Y-72644000D03*
%TD*%
D37*
%TO.C,TP18*%
X148844000Y-104648000D03*
%TD*%
D32*
%TO.C,C42*%
X182943000Y-90678000D03*
X181393000Y-90678000D03*
%TD*%
D19*
%TO.C,R7*%
X88646000Y-71882000D03*
X88646000Y-70232000D03*
%TD*%
D14*
%TO.C,C58*%
X165100000Y-82702000D03*
X165100000Y-81152000D03*
%TD*%
D10*
%TO.C,R30*%
X162052000Y-65278000D03*
X160402000Y-65278000D03*
%TD*%
D17*
%TO.C,R43*%
X181393000Y-69947000D03*
X183043000Y-69947000D03*
%TD*%
D47*
%TO.C,D3*%
X153162000Y-104237000D03*
X153162000Y-102362000D03*
%TD*%
D11*
%TO.C,TR9*%
X174147000Y-109606000D03*
X174147000Y-111506000D03*
X176022000Y-110556000D03*
%TD*%
D22*
%TO.C,C14*%
X157328000Y-68580000D03*
X158878000Y-68580000D03*
%TD*%
D19*
%TO.C,R22*%
X110991590Y-105664000D03*
X110991590Y-104014000D03*
%TD*%
%TO.C,R24*%
X119956885Y-105664000D03*
X119956885Y-104014000D03*
%TD*%
D24*
%TO.C,R64*%
X163576000Y-77978000D03*
X163576000Y-79628000D03*
%TD*%
D23*
%TO.C,D18*%
X179564000Y-74676000D03*
X176764000Y-74676000D03*
%TD*%
D19*
%TO.C,R42*%
X172212000Y-63500000D03*
X172212000Y-61850000D03*
%TD*%
D18*
%TO.C,C23*%
X179578000Y-65634000D03*
X179578000Y-67184000D03*
%TD*%
D48*
%TO.C,RV1*%
X84582000Y-63883000D03*
X87122000Y-59053000D03*
X89662000Y-63883000D03*
%TD*%
D40*
%TO.C,C40*%
X190669000Y-90353000D03*
X190669000Y-93303000D03*
%TD*%
D19*
%TO.C,R28*%
X137887475Y-105664000D03*
X137887475Y-104014000D03*
%TD*%
%TO.C,R61*%
X160274000Y-79628000D03*
X160274000Y-77978000D03*
%TD*%
D17*
%TO.C,R58*%
X180594000Y-97028000D03*
X182244000Y-97028000D03*
%TD*%
D37*
%TO.C,TP9*%
X85852000Y-107950000D03*
%TD*%
D19*
%TO.C,R10*%
X155194000Y-104012000D03*
X155194000Y-102362000D03*
%TD*%
D40*
%TO.C,C55*%
X166116000Y-93570000D03*
X166116000Y-96520000D03*
%TD*%
D17*
%TO.C,R60*%
X173673000Y-113284000D03*
X175323000Y-113284000D03*
%TD*%
D49*
%TO.C,TR7*%
X184790000Y-69947000D03*
X186690000Y-69947000D03*
X185740000Y-68072000D03*
%TD*%
D14*
%TO.C,C6*%
X108398000Y-69101000D03*
X108398000Y-67551000D03*
%TD*%
D12*
%TO.C,D19*%
X192278000Y-104380000D03*
X192278000Y-101580000D03*
%TD*%
D37*
%TO.C,TP11*%
X139954000Y-99314000D03*
%TD*%
D19*
%TO.C,R40*%
X174752000Y-70358000D03*
X174752000Y-68708000D03*
%TD*%
D18*
%TO.C,C24*%
X176276000Y-65634000D03*
X176276000Y-67184000D03*
%TD*%
D50*
%TO.C,U2*%
X129286000Y-74867300D03*
D51*
X126746000Y-74867300D03*
X124206000Y-74867300D03*
X121666000Y-74867300D03*
X119126000Y-74867300D03*
X116586000Y-74867300D03*
X114046000Y-74867300D03*
X111506000Y-74867300D03*
X108966000Y-74867300D03*
X106426000Y-74867300D03*
X103886000Y-74867300D03*
X101346000Y-74867300D03*
X98806000Y-74867300D03*
X96266000Y-74867300D03*
X93726000Y-74817300D03*
X93726000Y-100367300D03*
X96266000Y-100367300D03*
X98806000Y-100367300D03*
X101346000Y-100367300D03*
X103886000Y-100367300D03*
X106426000Y-100367300D03*
X108966000Y-100367300D03*
X111506000Y-100367300D03*
X114046000Y-100367300D03*
X116586000Y-100367300D03*
X119126000Y-100367300D03*
X121666000Y-100367300D03*
X124206000Y-100367300D03*
X126746000Y-100367300D03*
X129286000Y-100317300D03*
%TD*%
D12*
%TO.C,D9*%
X113531590Y-107064000D03*
X113531590Y-104264000D03*
%TD*%
D13*
%TO.C,D10*%
X122496885Y-109728000D03*
X120621885Y-109728000D03*
%TD*%
D38*
%TO.C,L2*%
X144614000Y-57404000D03*
X155614000Y-57404000D03*
%TD*%
D46*
%TO.C,TR3*%
X139718500Y-53528000D03*
X139718500Y-51628000D03*
X137843500Y-52578000D03*
%TD*%
D10*
%TO.C,R16*%
X124269000Y-69342000D03*
X122619000Y-69342000D03*
%TD*%
D24*
%TO.C,R49*%
X172212000Y-79693000D03*
X172212000Y-81343000D03*
%TD*%
D37*
%TO.C,TP19*%
X118110000Y-71120000D03*
%TD*%
D13*
%TO.C,D4*%
X95601000Y-109728000D03*
X93726000Y-109728000D03*
%TD*%
D22*
%TO.C,C47*%
X190728000Y-99314000D03*
X192278000Y-99314000D03*
%TD*%
D27*
%TO.C,C8*%
X91948000Y-54258000D03*
X91948000Y-51308000D03*
%TD*%
D37*
%TO.C,TP2*%
X113792000Y-71120000D03*
%TD*%
D13*
%TO.C,D12*%
X131462180Y-109728000D03*
X129587180Y-109728000D03*
%TD*%
D14*
%TO.C,C37*%
X174498000Y-76226000D03*
X174498000Y-74676000D03*
%TD*%
D10*
%TO.C,R36*%
X162115000Y-56388000D03*
X160465000Y-56388000D03*
%TD*%
D19*
%TO.C,R52*%
X188468000Y-93281000D03*
X188468000Y-91631000D03*
%TD*%
D40*
%TO.C,C30*%
X190669000Y-67493000D03*
X190669000Y-70443000D03*
%TD*%
D14*
%TO.C,C52*%
X176276000Y-107759000D03*
X176276000Y-106209000D03*
%TD*%
D42*
%TO.C,C21*%
X159187000Y-51647000D03*
X162137000Y-51647000D03*
%TD*%
D37*
%TO.C,TP16*%
X130302000Y-67564000D03*
%TD*%
D13*
%TO.C,D6*%
X104566295Y-109728000D03*
X102691295Y-109728000D03*
%TD*%
D33*
%TO.C,L6*%
X150876000Y-95416000D03*
X150876000Y-84416000D03*
%TD*%
D32*
%TO.C,C44*%
X178460000Y-101092000D03*
X176910000Y-101092000D03*
%TD*%
D35*
%TO.C,C50*%
X176601000Y-115485000D03*
X173651000Y-115485000D03*
%TD*%
D31*
%TO.C,D1*%
X105474000Y-65278000D03*
X108274000Y-65278000D03*
%TD*%
D15*
%TO.C,I1*%
X93343000Y-115470000D03*
D16*
X96843000Y-115470000D03*
%TD*%
D10*
%TO.C,R76*%
X124269000Y-71120000D03*
X122619000Y-71120000D03*
%TD*%
D32*
%TO.C,C19*%
X147320000Y-65292000D03*
X145770000Y-65292000D03*
%TD*%
D17*
%TO.C,R15*%
X138406000Y-60706000D03*
X140056000Y-60706000D03*
%TD*%
D14*
%TO.C,C27*%
X174498000Y-53366000D03*
X174498000Y-51816000D03*
%TD*%
D52*
%TO.C,D2*%
X84660500Y-69979000D03*
X86535500Y-69979000D03*
%TD*%
D24*
%TO.C,R1*%
X111446000Y-62738000D03*
X111446000Y-64388000D03*
%TD*%
D18*
%TO.C,C3*%
X93158000Y-66851000D03*
X93158000Y-68401000D03*
%TD*%
%TO.C,C5*%
X91634000Y-66851000D03*
X91634000Y-68401000D03*
%TD*%
D37*
%TO.C,TP13*%
X167640000Y-64770000D03*
%TD*%
D24*
%TO.C,R63*%
X165100000Y-77978000D03*
X165100000Y-79628000D03*
%TD*%
D32*
%TO.C,C48*%
X178460000Y-98044000D03*
X176910000Y-98044000D03*
%TD*%
D19*
%TO.C,R20*%
X102026295Y-105664000D03*
X102026295Y-104014000D03*
%TD*%
D15*
%TO.C,Q1*%
X148448000Y-115062000D03*
D16*
X151948000Y-115062000D03*
X155448000Y-115062000D03*
%TD*%
D22*
%TO.C,C1*%
X97222000Y-71628000D03*
X98772000Y-71628000D03*
%TD*%
D37*
%TO.C,TP4*%
X107771295Y-108204000D03*
%TD*%
D15*
%TO.C,Q2*%
X161544000Y-115062000D03*
D16*
X165044000Y-115062000D03*
X168544000Y-115062000D03*
%TD*%
D38*
%TO.C,L1*%
X106786000Y-57150000D03*
X95786000Y-57150000D03*
%TD*%
D53*
%TO.C,U12*%
X186015000Y-104380000D03*
X186015000Y-103110000D03*
X186015000Y-101840000D03*
X186015000Y-100570000D03*
X181055000Y-100570000D03*
X181055000Y-101840000D03*
X181055000Y-103110000D03*
X181055000Y-104380000D03*
D26*
X183535000Y-102475000D03*
%TD*%
D17*
%TO.C,R56*%
X173736000Y-99568000D03*
X175386000Y-99568000D03*
%TD*%
D48*
%TO.C,RV2*%
X163322000Y-102741000D03*
X160782000Y-107571000D03*
X158242000Y-102741000D03*
%TD*%
D36*
%TO.C,H6*%
X140208000Y-82804000D03*
%TD*%
%TO.C,H4*%
X166878000Y-54102000D03*
%TD*%
D20*
%TO.C,U11*%
X179564000Y-80939000D03*
X178294000Y-80939000D03*
X177024000Y-80939000D03*
X175754000Y-80939000D03*
X175754000Y-85899000D03*
X177024000Y-85899000D03*
X178294000Y-85899000D03*
X179564000Y-85899000D03*
D21*
X177659000Y-83419000D03*
%TD*%
D37*
%TO.C,TP1*%
X88900000Y-110744000D03*
%TD*%
D10*
%TO.C,R9*%
X134916500Y-51562000D03*
X133266500Y-51562000D03*
%TD*%
D54*
%TO.C,F2*%
X134112000Y-64262000D03*
X129012000Y-63062000D03*
%TD*%
D22*
%TO.C,C62*%
X155385000Y-80518000D03*
X156935000Y-80518000D03*
%TD*%
%TO.C,C13*%
X157328000Y-65278000D03*
X158878000Y-65278000D03*
%TD*%
D40*
%TO.C,C4*%
X111446000Y-66040000D03*
X111446000Y-68990000D03*
%TD*%
D15*
%TO.C,I6*%
X138169475Y-115470000D03*
D16*
X141669475Y-115470000D03*
%TD*%
D18*
%TO.C,C28*%
X173228000Y-65634000D03*
X173228000Y-67184000D03*
%TD*%
D19*
%TO.C,R26*%
X128922180Y-105664000D03*
X128922180Y-104014000D03*
%TD*%
D49*
%TO.C,TR8*%
X184790000Y-92807000D03*
X186690000Y-92807000D03*
X185740000Y-90932000D03*
%TD*%
D24*
%TO.C,R45*%
X178054000Y-91568000D03*
X178054000Y-93218000D03*
%TD*%
%TO.C,R66*%
X166116000Y-84836000D03*
X166116000Y-86486000D03*
%TD*%
D46*
%TO.C,TR5*%
X139718500Y-59116000D03*
X139718500Y-57216000D03*
X137843500Y-58166000D03*
%TD*%
D37*
%TO.C,TP12*%
X139954000Y-93472000D03*
%TD*%
D53*
%TO.C,U1*%
X102750000Y-68961000D03*
X102750000Y-67691000D03*
X102750000Y-66421000D03*
X102750000Y-65151000D03*
X97790000Y-65151000D03*
X97790000Y-66421000D03*
X97790000Y-67691000D03*
X97790000Y-68961000D03*
D26*
X100270000Y-67056000D03*
%TD*%
D12*
%TO.C,D7*%
X104566295Y-107064000D03*
X104566295Y-104264000D03*
%TD*%
D10*
%TO.C,R31*%
X162052000Y-71628000D03*
X160402000Y-71628000D03*
%TD*%
D15*
%TO.C,I3*%
X111273590Y-115470000D03*
D16*
X114773590Y-115470000D03*
%TD*%
D18*
%TO.C,C59*%
X158764000Y-92710000D03*
X158764000Y-94260000D03*
%TD*%
D15*
%TO.C,I5*%
X129204180Y-115470000D03*
D16*
X132704180Y-115470000D03*
%TD*%
D12*
%TO.C,D5*%
X95601000Y-107064000D03*
X95601000Y-104264000D03*
%TD*%
D24*
%TO.C,R68*%
X149860000Y-77915000D03*
X149860000Y-79565000D03*
%TD*%
D19*
%TO.C,R4*%
X93158000Y-71882000D03*
X93158000Y-70232000D03*
%TD*%
D36*
%TO.C,H3*%
X168402000Y-105918000D03*
%TD*%
D37*
%TO.C,TP10*%
X85344000Y-67310000D03*
%TD*%
D17*
%TO.C,R55*%
X173736000Y-98044000D03*
X175386000Y-98044000D03*
%TD*%
D10*
%TO.C,R53*%
X175386000Y-102870000D03*
X173736000Y-102870000D03*
%TD*%
D43*
%TO.C,Vi1*%
X118563000Y-55575000D03*
D44*
X113483000Y-55575000D03*
%TD*%
D24*
%TO.C,R37*%
X178054000Y-68708000D03*
X178054000Y-70358000D03*
%TD*%
D19*
%TO.C,R65*%
X166116000Y-91503000D03*
X166116000Y-89853000D03*
%TD*%
%TO.C,R18*%
X93061000Y-105664000D03*
X93061000Y-104014000D03*
%TD*%
D37*
%TO.C,TP14*%
X148844000Y-100584000D03*
%TD*%
D18*
%TO.C,C38*%
X173228000Y-88494000D03*
X173228000Y-90044000D03*
%TD*%
D13*
%TO.C,D8*%
X113531590Y-109728000D03*
X111656590Y-109728000D03*
%TD*%
D12*
%TO.C,D11*%
X122496885Y-107064000D03*
X122496885Y-104264000D03*
%TD*%
D14*
%TO.C,C7*%
X106366000Y-69101000D03*
X106366000Y-67551000D03*
%TD*%
D37*
%TO.C,TP15*%
X170180000Y-99314000D03*
%TD*%
D24*
%TO.C,R41*%
X172212000Y-56833000D03*
X172212000Y-58483000D03*
%TD*%
D27*
%TO.C,C9*%
X91948000Y-60452000D03*
X91948000Y-57502000D03*
%TD*%
D18*
%TO.C,C2*%
X94682000Y-66851000D03*
X94682000Y-68401000D03*
%TD*%
D19*
%TO.C,R44*%
X188468000Y-70421000D03*
X188468000Y-68771000D03*
%TD*%
D42*
%TO.C,C45*%
X189328000Y-97028000D03*
X192278000Y-97028000D03*
%TD*%
D35*
%TO.C,C51*%
X176601000Y-118025000D03*
X173651000Y-118025000D03*
%TD*%
D37*
%TO.C,TP17*%
X148844000Y-108712000D03*
%TD*%
D19*
%TO.C,R13*%
X153162000Y-108584000D03*
X153162000Y-106934000D03*
%TD*%
%TO.C,R3*%
X91634000Y-71882000D03*
X91634000Y-70232000D03*
%TD*%
D37*
%TO.C,TP5*%
X116736590Y-108204000D03*
%TD*%
D14*
%TO.C,C39*%
X179564000Y-78486000D03*
X179564000Y-76936000D03*
%TD*%
D37*
%TO.C,TP7*%
X134667180Y-108204000D03*
%TD*%
D18*
%TO.C,C36*%
X174752000Y-88494000D03*
X174752000Y-90044000D03*
%TD*%
D24*
%TO.C,R59*%
X174147000Y-106209000D03*
X174147000Y-107859000D03*
%TD*%
M02*
