%TF.GenerationSoftware,KiCad,Pcbnew,7.0.10*%
%TF.CreationDate,2024-02-13T14:16:51+07:00*%
%TF.ProjectId,AniSignage v2,416e6953-6967-46e6-9167-652076322e6b,rev?*%
%TF.SameCoordinates,Original*%
%TF.FileFunction,Soldermask,Bot*%
%TF.FilePolarity,Negative*%
%FSLAX46Y46*%
G04 Gerber Fmt 4.6, Leading zero omitted, Abs format (unit mm)*
G04 Created by KiCad (PCBNEW 7.0.10) date 2024-02-13 14:16:51*
%MOMM*%
%LPD*%
G01*
G04 APERTURE LIST*
G04 Aperture macros list*
%AMRoundRect*
0 Rectangle with rounded corners*
0 $1 Rounding radius*
0 $2 $3 $4 $5 $6 $7 $8 $9 X,Y pos of 4 corners*
0 Add a 4 corners polygon primitive as box body*
4,1,4,$2,$3,$4,$5,$6,$7,$8,$9,$2,$3,0*
0 Add four circle primitives for the rounded corners*
1,1,$1+$1,$2,$3*
1,1,$1+$1,$4,$5*
1,1,$1+$1,$6,$7*
1,1,$1+$1,$8,$9*
0 Add four rect primitives between the rounded corners*
20,1,$1+$1,$2,$3,$4,$5,0*
20,1,$1+$1,$4,$5,$6,$7,0*
20,1,$1+$1,$6,$7,$8,$9,0*
20,1,$1+$1,$8,$9,$2,$3,0*%
%AMFreePoly0*
4,1,6,1.000000,0.000000,0.500000,-0.750000,-0.500000,-0.750000,-0.500000,0.750000,0.500000,0.750000,1.000000,0.000000,1.000000,0.000000,$1*%
G04 Aperture macros list end*
%ADD10R,2.400000X2.400000*%
%ADD11C,2.400000*%
%ADD12C,3.200000*%
%ADD13R,3.000000X3.000000*%
%ADD14C,3.000000*%
%ADD15R,1.580000X1.780000*%
%ADD16O,1.580000X1.780000*%
%ADD17C,2.010000*%
%ADD18RoundRect,0.150000X0.150000X-0.587500X0.150000X0.587500X-0.150000X0.587500X-0.150000X-0.587500X0*%
%ADD19RoundRect,0.200000X0.275000X-0.200000X0.275000X0.200000X-0.275000X0.200000X-0.275000X-0.200000X0*%
%ADD20R,1.600000X1.600000*%
%ADD21RoundRect,0.200000X-0.200000X-0.275000X0.200000X-0.275000X0.200000X0.275000X-0.200000X0.275000X0*%
%ADD22RoundRect,0.200000X0.200000X0.275000X-0.200000X0.275000X-0.200000X-0.275000X0.200000X-0.275000X0*%
%ADD23R,1.500000X1.500000*%
%ADD24FreePoly0,0.000000*%
%ADD25FreePoly0,180.000000*%
%ADD26RoundRect,0.225000X-0.225000X-0.250000X0.225000X-0.250000X0.225000X0.250000X-0.225000X0.250000X0*%
%ADD27R,0.400000X0.650000*%
%ADD28RoundRect,0.250000X0.300000X0.300000X-0.300000X0.300000X-0.300000X-0.300000X0.300000X-0.300000X0*%
G04 APERTURE END LIST*
D10*
%TO.C,I4*%
X120238885Y-115470000D03*
D11*
X123738885Y-115470000D03*
%TD*%
D10*
%TO.C,I2*%
X102308295Y-115470000D03*
D11*
X105808295Y-115470000D03*
%TD*%
D12*
%TO.C,H2*%
X86868000Y-116332000D03*
%TD*%
D13*
%TO.C,Vi2*%
X129540000Y-55575000D03*
D14*
X124460000Y-55575000D03*
%TD*%
D12*
%TO.C,H1*%
X86868000Y-53340000D03*
%TD*%
%TO.C,H5*%
X166878000Y-72644000D03*
%TD*%
D15*
%TO.C,U2*%
X129286000Y-74867300D03*
D16*
X126746000Y-74867300D03*
X124206000Y-74867300D03*
X121666000Y-74867300D03*
X119126000Y-74867300D03*
X116586000Y-74867300D03*
X114046000Y-74867300D03*
X111506000Y-74867300D03*
X108966000Y-74867300D03*
X106426000Y-74867300D03*
X103886000Y-74867300D03*
X101346000Y-74867300D03*
X98806000Y-74867300D03*
X96266000Y-74867300D03*
X93726000Y-74817300D03*
X93726000Y-100367300D03*
X96266000Y-100367300D03*
X98806000Y-100367300D03*
X101346000Y-100367300D03*
X103886000Y-100367300D03*
X106426000Y-100367300D03*
X108966000Y-100367300D03*
X111506000Y-100367300D03*
X114046000Y-100367300D03*
X116586000Y-100367300D03*
X119126000Y-100367300D03*
X121666000Y-100367300D03*
X124206000Y-100367300D03*
X126746000Y-100367300D03*
X129286000Y-100317300D03*
%TD*%
D10*
%TO.C,I1*%
X93343000Y-115470000D03*
D11*
X96843000Y-115470000D03*
%TD*%
D10*
%TO.C,Q1*%
X148448000Y-115062000D03*
D11*
X151948000Y-115062000D03*
X155448000Y-115062000D03*
%TD*%
D10*
%TO.C,Q2*%
X161544000Y-115062000D03*
D11*
X165044000Y-115062000D03*
X168544000Y-115062000D03*
%TD*%
D12*
%TO.C,H6*%
X140208000Y-82804000D03*
%TD*%
%TO.C,H4*%
X166878000Y-54102000D03*
%TD*%
D17*
%TO.C,F2*%
X134112000Y-64262000D03*
X129012000Y-63062000D03*
%TD*%
D10*
%TO.C,I6*%
X138169475Y-115470000D03*
D11*
X141669475Y-115470000D03*
%TD*%
D10*
%TO.C,I3*%
X111273590Y-115470000D03*
D11*
X114773590Y-115470000D03*
%TD*%
D10*
%TO.C,I5*%
X129204180Y-115470000D03*
D11*
X132704180Y-115470000D03*
%TD*%
D12*
%TO.C,H3*%
X168402000Y-105918000D03*
%TD*%
D13*
%TO.C,Vi1*%
X118563000Y-55575000D03*
D14*
X113483000Y-55575000D03*
%TD*%
D18*
%TO.C,Q4*%
X96566000Y-87915000D03*
X94666000Y-87915000D03*
X95616000Y-86040000D03*
%TD*%
D19*
%TO.C,R17*%
X98141000Y-112902000D03*
X98141000Y-111252000D03*
%TD*%
%TO.C,R19*%
X107106295Y-112902000D03*
X107106295Y-111252000D03*
%TD*%
D20*
%TO.C,U6*%
X122496885Y-112014000D03*
X119956885Y-112014000D03*
X119956885Y-104394000D03*
X122496885Y-104394000D03*
%TD*%
%TO.C,U8*%
X140427475Y-112014000D03*
X137887475Y-112014000D03*
X137887475Y-104394000D03*
X140427475Y-104394000D03*
%TD*%
D21*
%TO.C,R70*%
X106363000Y-84008000D03*
X108013000Y-84008000D03*
%TD*%
%TO.C,R72*%
X94791000Y-90104000D03*
X96441000Y-90104000D03*
%TD*%
D18*
%TO.C,Q3*%
X108138000Y-87915000D03*
X106238000Y-87915000D03*
X107188000Y-86040000D03*
%TD*%
D22*
%TO.C,R74*%
X101267000Y-90104000D03*
X99617000Y-90104000D03*
%TD*%
D23*
%TO.C,JP2*%
X109290000Y-80198000D03*
X111690000Y-80198000D03*
D24*
X108490000Y-80198000D03*
D25*
X112490000Y-80198000D03*
%TD*%
D19*
%TO.C,R25*%
X134002180Y-112902000D03*
X134002180Y-111252000D03*
%TD*%
%TO.C,R27*%
X142967475Y-112902000D03*
X142967475Y-111252000D03*
%TD*%
D22*
%TO.C,R71*%
X112839000Y-90104000D03*
X111189000Y-90104000D03*
%TD*%
D26*
%TO.C,C64*%
X99654000Y-84008000D03*
X101204000Y-84008000D03*
%TD*%
D27*
%TO.C,U15*%
X101092000Y-88006000D03*
X100442000Y-88006000D03*
X99792000Y-88006000D03*
X99792000Y-86106000D03*
X100442000Y-86106000D03*
X101092000Y-86106000D03*
%TD*%
D20*
%TO.C,U4*%
X104566295Y-112014000D03*
X102026295Y-112014000D03*
X102026295Y-104394000D03*
X104566295Y-104394000D03*
%TD*%
D27*
%TO.C,U14*%
X112664000Y-88006000D03*
X112014000Y-88006000D03*
X111364000Y-88006000D03*
X111364000Y-86106000D03*
X112014000Y-86106000D03*
X112664000Y-86106000D03*
%TD*%
D21*
%TO.C,R73*%
X94791000Y-84008000D03*
X96441000Y-84008000D03*
%TD*%
%TO.C,R69*%
X106363000Y-90104000D03*
X108013000Y-90104000D03*
%TD*%
D20*
%TO.C,U7*%
X131462180Y-112014000D03*
X128922180Y-112014000D03*
X128922180Y-104394000D03*
X131462180Y-104394000D03*
%TD*%
D28*
%TO.C,D22*%
X126368000Y-79502000D03*
X123568000Y-79502000D03*
%TD*%
D23*
%TO.C,JP3*%
X97718000Y-80198000D03*
X100118000Y-80198000D03*
D24*
X96918000Y-80198000D03*
D25*
X100918000Y-80198000D03*
%TD*%
D19*
%TO.C,R21*%
X116071590Y-112902000D03*
X116071590Y-111252000D03*
%TD*%
D20*
%TO.C,U5*%
X113531590Y-112014000D03*
X110991590Y-112014000D03*
X110991590Y-104394000D03*
X113531590Y-104394000D03*
%TD*%
D19*
%TO.C,R23*%
X125036885Y-112902000D03*
X125036885Y-111252000D03*
%TD*%
D26*
%TO.C,C63*%
X111226000Y-84008000D03*
X112776000Y-84008000D03*
%TD*%
D28*
%TO.C,D21*%
X119634000Y-79502000D03*
X116834000Y-79502000D03*
%TD*%
D20*
%TO.C,U3*%
X95601000Y-112014000D03*
X93061000Y-112014000D03*
X93061000Y-104394000D03*
X95601000Y-104394000D03*
%TD*%
M02*
