M48
; DRILL file {KiCad 7.0.10} date Tue Feb 13 14:16:55 2024
; FORMAT={-:-/ absolute / inch / decimal}
; #@! TF.CreationDate,2024-02-13T14:16:55+07:00
; #@! TF.GenerationSoftware,Kicad,Pcbnew,7.0.10
; #@! TF.FileFunction,Plated,1,2,PTH
FMAT,2
INCH
; #@! TA.AperFunction,Plated,PTH,ViaDrill
T1C0.0157
; #@! TA.AperFunction,Plated,PTH,ComponentDrill
T2C0.0300
; #@! TA.AperFunction,Plated,PTH,ComponentDrill
T3C0.0398
; #@! TA.AperFunction,Plated,PTH,ComponentDrill
T4C0.0472
; #@! TA.AperFunction,Plated,PTH,ComponentDrill
T5C0.0598
%
G90
G05
T1
X3.33Y-2.36
X3.44Y-2.67
X3.5Y-4.04
X3.55Y-2.765
X3.55Y-2.87
X3.55Y-4.23
X3.58Y-4.04
X3.62Y-2.2
X3.65Y-3.15
X3.665Y-3.54
X3.73Y-3.24
X3.74Y-2.43
X3.76Y-3.61
X3.77Y-2.41
X3.7711Y-2.4495
X3.79Y-3.09
X3.79Y-3.725
X3.8Y-2.43
X3.83Y-4.18
X3.91Y-3.86
X3.9219Y-2.6056
X3.9219Y-2.6744
X3.94Y-4.095
X3.9734Y-2.6056
X3.9734Y-2.6744
X4.1Y-3.08
X4.1Y-3.23
X4.13Y-2.665
X4.13Y-2.82
X4.16Y-3.19
X4.183Y-4.18
X4.22Y-3.1574
X4.22Y-3.61
X4.29Y-4.095
X4.32Y-2.57
X4.5359Y-4.18
X4.56Y-2.77
X4.6Y-3.21
X4.62Y-2.71
X4.64Y-4.095
X4.7Y-2.71
X4.775Y-2.71
X4.82Y-2.545
X4.8889Y-4.18
X4.99Y-4.095
X5.105Y-2.775
X5.2419Y-4.18
X5.32Y-2.18
X5.32Y-2.4
X5.35Y-4.095
X5.36Y-2.765
X5.37Y-2.63
X5.41Y-2.63
X5.44Y-2.02
X5.44Y-2.24
X5.45Y-2.63
X5.49Y-2.63
X5.57Y-2.11
X5.57Y-2.6
X5.58Y-3.07
X5.5948Y-4.18
X5.63Y-2.11
X5.6935Y-2.4135
X5.695Y-2.11
X5.76Y-2.11
X5.79Y-3.69
X5.79Y-3.755
X5.79Y-3.82
X5.81Y-2.71
X5.81Y-2.745
X5.81Y-2.78
X5.86Y-4.19
X5.91Y-2.05
X5.91Y-2.49
X5.9684Y-2.6111
X5.9684Y-2.68
X5.97Y-3.0
X6.0Y-2.8
X6.02Y-2.6111
X6.02Y-2.68
X6.0935Y-3.7565
X6.2911Y-3.43
X6.2911Y-3.4816
X6.3Y-3.9
X6.36Y-3.43
X6.36Y-3.4816
X6.38Y-2.7
X6.38Y-3.07
X6.39Y-3.64
X6.425Y-3.64
X6.44Y-2.29
X6.44Y-2.5
X6.45Y-2.02
X6.46Y-3.64
X6.48Y-2.29
X6.52Y-2.29
X6.54Y-2.61
X6.58Y-3.49
X6.62Y-3.49
X6.62Y-3.5375
X6.62Y-3.8
X6.68Y-2.36
X6.69Y-2.02
X6.72Y-2.36
X6.75Y-3.27
X6.76Y-2.36
X6.77Y-4.39
X6.77Y-4.43
X6.77Y-4.47
X6.78Y-3.25
X6.79Y-4.05
X6.79Y-4.18
X6.81Y-3.27
X6.84Y-3.98
X6.86Y-2.2
X6.86Y-3.1
X6.895Y-2.2
X6.895Y-3.1
X6.93Y-2.2
X6.93Y-3.1
X6.94Y-2.77
X6.94Y-3.67
X6.96Y-2.3584
X6.96Y-2.41
X6.96Y-3.2584
X6.96Y-3.31
X7.01Y-2.83
X7.01Y-3.72
X7.0289Y-2.3584
X7.0289Y-2.41
X7.0289Y-3.2584
X7.0289Y-3.31
X7.13Y-2.54
X7.2Y-4.0
X7.2Y-4.0689
X7.22Y-3.73
X7.2265Y-2.0835
X7.2265Y-2.9835
X7.25Y-2.83
X7.2516Y-4.0
X7.2516Y-4.0689
X7.26Y-3.73
X7.26Y-3.77
X7.3Y-2.83
X7.35Y-2.83
X7.35Y-3.73
X7.39Y-3.73
X7.41Y-3.9
X7.41Y-3.935
X7.41Y-3.97
X7.42Y-2.84
X7.45Y-3.73
X7.46Y-4.57
X7.525Y-4.57
X7.5265Y-4.2665
X7.53Y-2.02
X7.53Y-2.085
X7.53Y-2.15
X7.53Y-2.92
X7.53Y-2.985
X7.53Y-3.05
X7.53Y-3.2
X7.56Y-2.3
X7.59Y-4.57
X7.63Y-2.84
X7.63Y-3.82
X7.63Y-4.06
T2
X3.69Y-2.9495
X3.69Y-3.9495
X3.79Y-2.9495
X3.79Y-3.9495
X3.89Y-2.9495
X3.89Y-3.9495
X3.99Y-2.9495
X3.99Y-3.9495
X4.09Y-2.9495
X4.09Y-3.9495
X4.19Y-2.9495
X4.19Y-3.9495
X4.29Y-2.9495
X4.29Y-3.9495
X4.39Y-2.9495
X4.39Y-3.9495
X4.49Y-2.9495
X4.49Y-3.9495
X4.59Y-2.9495
X4.59Y-3.9495
X4.69Y-2.9495
X4.69Y-3.9495
X4.79Y-2.9495
X4.79Y-3.9495
X4.89Y-2.9495
X4.89Y-3.9495
X4.99Y-2.9495
X4.99Y-3.9495
X5.09Y-2.9495
X5.09Y-3.9495
T3
X5.0792Y-2.4828
X5.28Y-2.53
T4
X3.6749Y-4.5461
X3.8127Y-4.5461
X4.0279Y-4.5461
X4.1657Y-4.5461
X4.3808Y-4.5461
X4.5186Y-4.5461
X4.7338Y-4.5461
X4.8716Y-4.5461
X5.0868Y-4.5461
X5.2246Y-4.5461
X5.4397Y-4.5461
X5.5775Y-4.5461
X5.8444Y-4.53
X5.9822Y-4.53
X6.12Y-4.53
X6.36Y-4.53
X6.4978Y-4.53
X6.6356Y-4.53
T5
X4.4678Y-2.188
X4.6678Y-2.188
X4.9Y-2.188
X5.1Y-2.188
M30
